<mxfile host="app.diagrams.net" agent="Mozilla/5.0 (X11; Ubuntu; Linux x86_64; rv:132.0) Gecko/20100101 Firefox/132.0" version="25.0.1" pages="9">
  <diagram name="introduccion-uml" id="V42Jh2hrb1Ldb8V-Wk3Z">
    <mxGraphModel grid="1" page="1" gridSize="10" guides="1" tooltips="1" connect="1" arrows="1" fold="1" pageScale="1" pageWidth="827" pageHeight="1169" math="0" shadow="0">
      <root>
        <mxCell id="0" />
        <mxCell id="1" parent="0" />
        <mxCell id="NSxe7MWsmzIYF4BGq87U-6" value="Animal " style="html=1;whiteSpace=wrap;" vertex="1" parent="1">
          <mxGeometry x="70" y="122" width="120" height="90" as="geometry" />
        </mxCell>
        <mxCell id="NSxe7MWsmzIYF4BGq87U-8" value="La Clase Animal" style="text;html=1;align=center;verticalAlign=middle;resizable=0;points=[];autosize=1;strokeColor=none;fillColor=none;" vertex="1" parent="1">
          <mxGeometry x="75" y="92" width="110" height="30" as="geometry" />
        </mxCell>
        <mxCell id="NSxe7MWsmzIYF4BGq87U-9" value="Lavadora" style="swimlane;fontStyle=1;align=center;verticalAlign=top;childLayout=stackLayout;horizontal=1;startSize=26;horizontalStack=0;resizeParent=1;resizeParentMax=0;resizeLast=0;collapsible=1;marginBottom=0;whiteSpace=wrap;html=1;" vertex="1" parent="1">
          <mxGeometry x="290" y="60" width="160" height="198" as="geometry">
            <mxRectangle x="290" y="48" width="120" height="30" as="alternateBounds" />
          </mxGeometry>
        </mxCell>
        <mxCell id="NSxe7MWsmzIYF4BGq87U-10" value="&lt;div&gt;marca&lt;/div&gt;&lt;div&gt;modelo&lt;/div&gt;&lt;div&gt;numeroSerie&lt;/div&gt;&lt;div&gt;capacidad&lt;/div&gt;&lt;div&gt;&lt;br&gt;&lt;/div&gt;" style="text;strokeColor=none;fillColor=none;align=left;verticalAlign=top;spacingLeft=4;spacingRight=4;overflow=hidden;rotatable=0;points=[[0,0.5],[1,0.5]];portConstraint=eastwest;whiteSpace=wrap;html=1;" vertex="1" parent="NSxe7MWsmzIYF4BGq87U-9">
          <mxGeometry y="26" width="160" height="84" as="geometry" />
        </mxCell>
        <mxCell id="NSxe7MWsmzIYF4BGq87U-11" value="" style="line;strokeWidth=1;fillColor=none;align=left;verticalAlign=middle;spacingTop=-1;spacingLeft=3;spacingRight=3;rotatable=0;labelPosition=right;points=[];portConstraint=eastwest;strokeColor=inherit;" vertex="1" parent="NSxe7MWsmzIYF4BGq87U-9">
          <mxGeometry y="110" width="160" height="8" as="geometry" />
        </mxCell>
        <mxCell id="NSxe7MWsmzIYF4BGq87U-12" value="&lt;div&gt;agregarRopa(C:String)&lt;/div&gt;&lt;div&gt;sacarRopa(C:String)&lt;br&gt;agregarDetergente(D:Integer)&lt;br&gt;activar():Boolean&lt;br&gt;&lt;/div&gt;" style="text;strokeColor=none;fillColor=none;align=left;verticalAlign=top;spacingLeft=4;spacingRight=4;overflow=hidden;rotatable=0;points=[[0,0.5],[1,0.5]];portConstraint=eastwest;whiteSpace=wrap;html=1;" vertex="1" parent="NSxe7MWsmzIYF4BGq87U-9">
          <mxGeometry y="118" width="160" height="80" as="geometry" />
        </mxCell>
        <mxCell id="NSxe7MWsmzIYF4BGq87U-13" value="Clase Lavadora con atributos y métodos" style="text;html=1;align=center;verticalAlign=middle;resizable=0;points=[];autosize=1;strokeColor=none;fillColor=none;" vertex="1" parent="1">
          <mxGeometry x="247" y="26" width="240" height="30" as="geometry" />
        </mxCell>
        <mxCell id="NSxe7MWsmzIYF4BGq87U-14" value="com.lta.modelo" style="shape=folder;fontStyle=1;spacingTop=10;tabWidth=40;tabHeight=14;tabPosition=left;html=1;whiteSpace=wrap;" vertex="1" parent="1">
          <mxGeometry x="580" y="72" width="170" height="160" as="geometry" />
        </mxCell>
        <mxCell id="NSxe7MWsmzIYF4BGq87U-15" value="Ejemplo de un paquete" style="text;html=1;align=center;verticalAlign=middle;resizable=0;points=[];autosize=1;strokeColor=none;fillColor=none;" vertex="1" parent="1">
          <mxGeometry x="590" y="26" width="150" height="30" as="geometry" />
        </mxCell>
        <mxCell id="NSxe7MWsmzIYF4BGq87U-18" value="" style="shape=folder;fontStyle=1;spacingTop=10;tabWidth=40;tabHeight=14;tabPosition=left;html=1;whiteSpace=wrap;" vertex="1" parent="1">
          <mxGeometry x="40" y="337" width="290" height="200" as="geometry" />
        </mxCell>
        <mxCell id="NSxe7MWsmzIYF4BGq87U-19" value="Anfibio" style="html=1;whiteSpace=wrap;" vertex="1" parent="1">
          <mxGeometry x="62" y="403" width="110" height="50" as="geometry" />
        </mxCell>
        <mxCell id="NSxe7MWsmzIYF4BGq87U-20" value="Mamifero" style="html=1;whiteSpace=wrap;" vertex="1" parent="1">
          <mxGeometry x="182" y="401" width="110" height="50" as="geometry" />
        </mxCell>
        <mxCell id="NSxe7MWsmzIYF4BGq87U-21" value="Reptil" style="html=1;whiteSpace=wrap;" vertex="1" parent="1">
          <mxGeometry x="137" y="471" width="110" height="50" as="geometry" />
        </mxCell>
        <mxCell id="NSxe7MWsmzIYF4BGq87U-22" value="com.lta.entidades" style="text;align=center;fontStyle=1;verticalAlign=middle;spacingLeft=3;spacingRight=3;strokeColor=none;rotatable=0;points=[[0,0.5],[1,0.5]];portConstraint=eastwest;html=1;" vertex="1" parent="1">
          <mxGeometry x="137" y="362" width="80" height="26" as="geometry" />
        </mxCell>
        <mxCell id="NSxe7MWsmzIYF4BGq87U-23" value="Ejemplo de paquete con clases" style="text;html=1;align=center;verticalAlign=middle;resizable=0;points=[];autosize=1;strokeColor=none;fillColor=none;" vertex="1" parent="1">
          <mxGeometry x="82" y="297" width="190" height="30" as="geometry" />
        </mxCell>
        <mxCell id="NSxe7MWsmzIYF4BGq87U-24" value="Animal" style="html=1;whiteSpace=wrap;" vertex="1" parent="1">
          <mxGeometry x="433" y="465" width="90" height="74" as="geometry" />
        </mxCell>
        <mxCell id="NSxe7MWsmzIYF4BGq87U-33" value="Clase base que define las propiedades y métodos comunes para todos&lt;br&gt;los animales" style="shape=note2;boundedLbl=1;whiteSpace=wrap;html=1;size=25;verticalAlign=top;align=center;" vertex="1" parent="1">
          <mxGeometry x="553" y="352" width="240" height="90" as="geometry" />
        </mxCell>
        <mxCell id="NSxe7MWsmzIYF4BGq87U-36" value="" style="endArrow=none;startArrow=none;endFill=0;startFill=0;endSize=8;html=1;verticalAlign=bottom;dashed=1;labelBackgroundColor=none;rounded=0;entryX=0.517;entryY=1.011;entryDx=0;entryDy=0;entryPerimeter=0;" edge="1" parent="1" target="NSxe7MWsmzIYF4BGq87U-33">
          <mxGeometry width="160" relative="1" as="geometry">
            <mxPoint x="524" y="505" as="sourcePoint" />
            <mxPoint x="680.0800000000002" y="453.83000000000004" as="targetPoint" />
          </mxGeometry>
        </mxCell>
        <mxCell id="NSxe7MWsmzIYF4BGq87U-37" value="Ejemplo de una clase con una nota adjuntada" style="text;html=1;align=center;verticalAlign=middle;resizable=0;points=[];autosize=1;strokeColor=none;fillColor=none;" vertex="1" parent="1">
          <mxGeometry x="450" y="297" width="270" height="30" as="geometry" />
        </mxCell>
        <mxCell id="NSxe7MWsmzIYF4BGq87U-38" value="«interface»&lt;br&gt;&lt;b&gt;Formulario&lt;/b&gt;" style="html=1;whiteSpace=wrap;" vertex="1" parent="1">
          <mxGeometry x="102" y="622" width="150" height="110" as="geometry" />
        </mxCell>
        <mxCell id="NSxe7MWsmzIYF4BGq87U-39" value="Ejemplo de una interfaz " style="text;html=1;align=center;verticalAlign=middle;resizable=0;points=[];autosize=1;strokeColor=none;fillColor=none;" vertex="1" parent="1">
          <mxGeometry x="102" y="585" width="150" height="30" as="geometry" />
        </mxCell>
      </root>
    </mxGraphModel>
  </diagram>
  <diagram id="5rzdqsuFeFf1RvaEdosp" name="ejercicio-1">
    <mxGraphModel grid="1" page="1" gridSize="10" guides="1" tooltips="1" connect="1" arrows="1" fold="1" pageScale="1" pageWidth="827" pageHeight="1169" math="0" shadow="0">
      <root>
        <mxCell id="0" />
        <mxCell id="1" parent="0" />
        <mxCell id="Ro5HHUEYuPQTt8mKgqId-1" value="Balon" style="swimlane;fontStyle=1;align=center;verticalAlign=top;childLayout=stackLayout;horizontal=1;startSize=26;horizontalStack=0;resizeParent=1;resizeParentMax=0;resizeLast=0;collapsible=1;marginBottom=0;whiteSpace=wrap;html=1;" vertex="1" parent="1">
          <mxGeometry x="110" y="60" width="160" height="200" as="geometry" />
        </mxCell>
        <mxCell id="Ro5HHUEYuPQTt8mKgqId-2" value="&lt;div&gt;diametro&lt;/div&gt;&lt;div&gt;volumen&lt;/div&gt;" style="text;strokeColor=none;fillColor=none;align=left;verticalAlign=top;spacingLeft=4;spacingRight=4;overflow=hidden;rotatable=0;points=[[0,0.5],[1,0.5]];portConstraint=eastwest;whiteSpace=wrap;html=1;" vertex="1" parent="Ro5HHUEYuPQTt8mKgqId-1">
          <mxGeometry y="26" width="160" height="44" as="geometry" />
        </mxCell>
        <mxCell id="Ro5HHUEYuPQTt8mKgqId-3" value="" style="line;strokeWidth=1;fillColor=none;align=left;verticalAlign=middle;spacingTop=-1;spacingLeft=3;spacingRight=3;rotatable=0;labelPosition=right;points=[];portConstraint=eastwest;strokeColor=inherit;" vertex="1" parent="Ro5HHUEYuPQTt8mKgqId-1">
          <mxGeometry y="70" width="160" height="8" as="geometry" />
        </mxCell>
        <mxCell id="Ro5HHUEYuPQTt8mKgqId-4" value="driblar()&lt;br&gt;tirar()&lt;br&gt;pasar()&lt;br&gt;avanzar()" style="text;strokeColor=none;fillColor=none;align=left;verticalAlign=top;spacingLeft=4;spacingRight=4;overflow=hidden;rotatable=0;points=[[0,0.5],[1,0.5]];portConstraint=eastwest;whiteSpace=wrap;html=1;" vertex="1" parent="Ro5HHUEYuPQTt8mKgqId-1">
          <mxGeometry y="78" width="160" height="122" as="geometry" />
        </mxCell>
        <mxCell id="Ro5HHUEYuPQTt8mKgqId-6" value="Jugador" style="swimlane;fontStyle=1;align=center;verticalAlign=top;childLayout=stackLayout;horizontal=1;startSize=26;horizontalStack=0;resizeParent=1;resizeParentMax=0;resizeLast=0;collapsible=1;marginBottom=0;whiteSpace=wrap;html=1;" vertex="1" parent="1">
          <mxGeometry x="310" y="60" width="160" height="202" as="geometry" />
        </mxCell>
        <mxCell id="Ro5HHUEYuPQTt8mKgqId-7" value="&lt;div&gt;&lt;br&gt;&lt;/div&gt;&lt;div&gt;nombre&lt;/div&gt;&lt;div&gt;estatura&lt;/div&gt;&lt;div&gt;peso&lt;/div&gt;" style="text;strokeColor=none;fillColor=none;align=left;verticalAlign=top;spacingLeft=4;spacingRight=4;overflow=hidden;rotatable=0;points=[[0,0.5],[1,0.5]];portConstraint=eastwest;whiteSpace=wrap;html=1;" vertex="1" parent="Ro5HHUEYuPQTt8mKgqId-6">
          <mxGeometry y="26" width="160" height="74" as="geometry" />
        </mxCell>
        <mxCell id="Ro5HHUEYuPQTt8mKgqId-8" value="" style="line;strokeWidth=1;fillColor=none;align=left;verticalAlign=middle;spacingTop=-1;spacingLeft=3;spacingRight=3;rotatable=0;labelPosition=right;points=[];portConstraint=eastwest;strokeColor=inherit;" vertex="1" parent="Ro5HHUEYuPQTt8mKgqId-6">
          <mxGeometry y="100" width="160" height="20" as="geometry" />
        </mxCell>
        <mxCell id="Ro5HHUEYuPQTt8mKgqId-9" value="driblarBalon()&lt;br&gt;pasarBalon()&lt;br&gt;tirarBalon()&lt;br&gt;rebotar()&lt;br&gt;infraccionarOponente()" style="text;strokeColor=none;fillColor=none;align=left;verticalAlign=top;spacingLeft=4;spacingRight=4;overflow=hidden;rotatable=0;points=[[0,0.5],[1,0.5]];portConstraint=eastwest;whiteSpace=wrap;html=1;" vertex="1" parent="Ro5HHUEYuPQTt8mKgqId-6">
          <mxGeometry y="120" width="160" height="82" as="geometry" />
        </mxCell>
        <mxCell id="Ro5HHUEYuPQTt8mKgqId-14" value="Defensa" style="html=1;whiteSpace=wrap;" vertex="1" parent="1">
          <mxGeometry x="517" y="60" width="110" height="50" as="geometry" />
        </mxCell>
        <mxCell id="Ro5HHUEYuPQTt8mKgqId-19" value="Cesto" style="html=1;whiteSpace=wrap;" vertex="1" parent="1">
          <mxGeometry x="517" y="130" width="110" height="50" as="geometry" />
        </mxCell>
        <mxCell id="Ro5HHUEYuPQTt8mKgqId-20" value="Infraccion" style="html=1;whiteSpace=wrap;" vertex="1" parent="1">
          <mxGeometry x="517" y="210" width="110" height="50" as="geometry" />
        </mxCell>
        <mxCell id="Ro5HHUEYuPQTt8mKgqId-21" value="Delantero" style="html=1;whiteSpace=wrap;" vertex="1" parent="1">
          <mxGeometry x="660" y="60" width="110" height="50" as="geometry" />
        </mxCell>
        <mxCell id="Ro5HHUEYuPQTt8mKgqId-22" value="Centro" style="html=1;whiteSpace=wrap;" vertex="1" parent="1">
          <mxGeometry x="517" y="364" width="110" height="50" as="geometry" />
        </mxCell>
        <mxCell id="Ro5HHUEYuPQTt8mKgqId-23" value="Tiro" style="html=1;whiteSpace=wrap;" vertex="1" parent="1">
          <mxGeometry x="660" y="130" width="110" height="50" as="geometry" />
        </mxCell>
        <mxCell id="Ro5HHUEYuPQTt8mKgqId-24" value="Infraccion" style="html=1;whiteSpace=wrap;" vertex="1" parent="1">
          <mxGeometry x="517" y="285" width="110" height="50" as="geometry" />
        </mxCell>
        <mxCell id="Ro5HHUEYuPQTt8mKgqId-25" value="LapsoDeTiro" style="html=1;whiteSpace=wrap;" vertex="1" parent="1">
          <mxGeometry x="110" y="294" width="165" height="50" as="geometry" />
        </mxCell>
        <mxCell id="Ro5HHUEYuPQTt8mKgqId-27" value="&lt;div&gt;{profesional: 24 segundos&lt;/div&gt;&lt;div&gt;colegial: 35 segundos&lt;br&gt;internacional: 30 segundos}&lt;/div&gt;" style="text;align=left;fontStyle=0;verticalAlign=middle;spacingLeft=3;spacingRight=3;strokeColor=none;rotatable=0;points=[[0,0.5],[1,0.5]];portConstraint=eastwest;html=1;" vertex="1" parent="1">
          <mxGeometry x="306" y="294" width="160" height="49" as="geometry" />
        </mxCell>
        <mxCell id="Ro5HHUEYuPQTt8mKgqId-28" value="CronometroDeJuego" style="html=1;whiteSpace=wrap;" vertex="1" parent="1">
          <mxGeometry x="110" y="365" width="165" height="50" as="geometry" />
        </mxCell>
        <mxCell id="Ro5HHUEYuPQTt8mKgqId-29" value="&lt;div&gt;{profesional: 4 cuartos de&amp;nbsp;&lt;/div&gt;&lt;div&gt;12 minutos. colegial e&amp;nbsp;&lt;/div&gt;&lt;div&gt;internacional: 2 mitades de&amp;nbsp;&lt;/div&gt;&lt;div&gt;20 minutos}&lt;/div&gt;" style="text;align=left;fontStyle=0;verticalAlign=middle;spacingLeft=3;spacingRight=3;strokeColor=none;rotatable=0;points=[[0,0.5],[1,0.5]];portConstraint=eastwest;html=1;" vertex="1" parent="1">
          <mxGeometry x="304" y="365" width="196" height="49" as="geometry" />
        </mxCell>
        <mxCell id="Ro5HHUEYuPQTt8mKgqId-30" value="Duracion" style="html=1;whiteSpace=wrap;" vertex="1" parent="1">
          <mxGeometry x="110" y="435" width="165" height="50" as="geometry" />
        </mxCell>
        <mxCell id="Ro5HHUEYuPQTt8mKgqId-31" value="&lt;div&gt;{profesional: 48 minutos&lt;/div&gt;&lt;div&gt;colegial e internacional:&amp;nbsp;&lt;/div&gt;&lt;div&gt;40 minutos}&lt;br&gt;&lt;/div&gt;" style="text;align=left;fontStyle=0;verticalAlign=middle;spacingLeft=3;spacingRight=3;strokeColor=none;rotatable=0;points=[[0,0.5],[1,0.5]];portConstraint=eastwest;html=1;" vertex="1" parent="1">
          <mxGeometry x="301" y="435" width="196" height="49" as="geometry" />
        </mxCell>
        <mxCell id="Ro5HHUEYuPQTt8mKgqId-32" value="&lt;div&gt;Linea&lt;/div&gt;&lt;div&gt;DeTresPuntos&lt;br&gt;&lt;/div&gt;" style="html=1;whiteSpace=wrap;" vertex="1" parent="1">
          <mxGeometry x="660" y="210" width="110" height="50" as="geometry" />
        </mxCell>
        <mxCell id="Ro5HHUEYuPQTt8mKgqId-33" value="TiroLibre" style="html=1;whiteSpace=wrap;" vertex="1" parent="1">
          <mxGeometry x="660" y="285" width="110" height="50" as="geometry" />
        </mxCell>
        <mxCell id="Ro5HHUEYuPQTt8mKgqId-34" value="LineaDeTiroLibre" style="html=1;whiteSpace=wrap;" vertex="1" parent="1">
          <mxGeometry x="660" y="364" width="110" height="50" as="geometry" />
        </mxCell>
        <mxCell id="Ro5HHUEYuPQTt8mKgqId-35" value="Cancha" style="html=1;whiteSpace=wrap;" vertex="1" parent="1">
          <mxGeometry x="517" y="434" width="110" height="50" as="geometry" />
        </mxCell>
      </root>
    </mxGraphModel>
  </diagram>
  <diagram id="2ZK7ReHxGvshgdJX68Ca" name="ejercicio-2">
    <mxGraphModel grid="1" page="1" gridSize="10" guides="1" tooltips="1" connect="1" arrows="1" fold="1" pageScale="1" pageWidth="827" pageHeight="1169" math="0" shadow="0">
      <root>
        <mxCell id="0" />
        <mxCell id="1" parent="0" />
        <mxCell id="jXG20EX0NcYIfrkqq-N--3" value="" style="edgeStyle=orthogonalEdgeStyle;rounded=0;orthogonalLoop=1;jettySize=auto;html=1;entryX=0.646;entryY=1.009;entryDx=0;entryDy=0;entryPerimeter=0;endArrow=block;endFill=0;" edge="1" parent="1">
          <mxGeometry relative="1" as="geometry">
            <mxPoint x="419" y="240" as="sourcePoint" />
            <mxPoint x="419.66999999999996" y="170.45" as="targetPoint" />
            <Array as="points">
              <mxPoint x="418.61" y="200" />
              <mxPoint x="419.61" y="200" />
            </Array>
          </mxGeometry>
        </mxCell>
        <mxCell id="jXG20EX0NcYIfrkqq-N--5" value="" style="edgeStyle=orthogonalEdgeStyle;rounded=0;orthogonalLoop=1;jettySize=auto;html=1;endArrow=none;endFill=0;" edge="1" parent="1" target="jXG20EX0NcYIfrkqq-N--4">
          <mxGeometry relative="1" as="geometry">
            <mxPoint x="419" y="210" as="sourcePoint" />
          </mxGeometry>
        </mxCell>
        <mxCell id="jXG20EX0NcYIfrkqq-N--10" value="" style="edgeStyle=orthogonalEdgeStyle;rounded=0;orthogonalLoop=1;jettySize=auto;html=1;endArrow=none;endFill=0;" edge="1" parent="1">
          <mxGeometry relative="1" as="geometry">
            <mxPoint x="420" y="210" as="sourcePoint" />
            <mxPoint x="266.0032154340836" y="240" as="targetPoint" />
            <Array as="points">
              <mxPoint x="266" y="210" />
            </Array>
          </mxGeometry>
        </mxCell>
        <mxCell id="jXG20EX0NcYIfrkqq-N--1" value="Animal" style="html=1;whiteSpace=wrap;" vertex="1" parent="1">
          <mxGeometry x="363" y="110" width="110" height="60" as="geometry" />
        </mxCell>
        <mxCell id="jXG20EX0NcYIfrkqq-N--12" value="" style="edgeStyle=orthogonalEdgeStyle;rounded=0;orthogonalLoop=1;jettySize=auto;html=1;entryX=0.295;entryY=1.017;entryDx=0;entryDy=0;entryPerimeter=0;exitX=0.298;exitY=-0.029;exitDx=0;exitDy=0;exitPerimeter=0;endArrow=block;endFill=0;" edge="1" parent="1">
          <mxGeometry relative="1" as="geometry">
            <mxPoint x="418.17" y="390" as="sourcePoint" />
            <mxPoint x="417.8400000000001" y="313.2199999999999" as="targetPoint" />
            <Array as="points">
              <mxPoint x="418.04" y="352" />
              <mxPoint x="418.04" y="352" />
            </Array>
          </mxGeometry>
        </mxCell>
        <mxCell id="jXG20EX0NcYIfrkqq-N--2" value="Mamifero" style="html=1;whiteSpace=wrap;" vertex="1" parent="1">
          <mxGeometry x="363" y="240" width="110" height="70" as="geometry" />
        </mxCell>
        <mxCell id="jXG20EX0NcYIfrkqq-N--4" value="Reptil" style="html=1;whiteSpace=wrap;" vertex="1" parent="1">
          <mxGeometry x="509" y="240" width="110" height="70" as="geometry" />
        </mxCell>
        <mxCell id="jXG20EX0NcYIfrkqq-N--9" value="Anfibio" style="html=1;whiteSpace=wrap;" vertex="1" parent="1">
          <mxGeometry x="209" y="240" width="110" height="70" as="geometry" />
        </mxCell>
        <mxCell id="jXG20EX0NcYIfrkqq-N--11" value="Caballo" style="html=1;whiteSpace=wrap;" vertex="1" parent="1">
          <mxGeometry x="363" y="390" width="110" height="70" as="geometry" />
        </mxCell>
      </root>
    </mxGraphModel>
  </diagram>
  <diagram id="Dk8cvnBsQXuxqk_Njpl9" name="ejercicio-3">
    <mxGraphModel grid="1" page="1" gridSize="10" guides="1" tooltips="1" connect="1" arrows="1" fold="1" pageScale="1" pageWidth="827" pageHeight="1169" math="0" shadow="0">
      <root>
        <mxCell id="0" />
        <mxCell id="1" parent="0" />
        <mxCell id="n7JdzGCJAJezanz4exXI-1" value="" style="edgeStyle=orthogonalEdgeStyle;rounded=0;orthogonalLoop=1;jettySize=auto;html=1;entryX=0.646;entryY=1.009;entryDx=0;entryDy=0;entryPerimeter=0;endArrow=block;endFill=0;" edge="1" parent="1">
          <mxGeometry relative="1" as="geometry">
            <mxPoint x="422" y="351" as="sourcePoint" />
            <mxPoint x="422.66999999999996" y="281.45" as="targetPoint" />
            <Array as="points">
              <mxPoint x="421.61" y="311" />
              <mxPoint x="422.61" y="311" />
            </Array>
          </mxGeometry>
        </mxCell>
        <mxCell id="n7JdzGCJAJezanz4exXI-2" value="" style="edgeStyle=orthogonalEdgeStyle;rounded=0;orthogonalLoop=1;jettySize=auto;html=1;endArrow=none;endFill=0;" edge="1" parent="1">
          <mxGeometry relative="1" as="geometry">
            <mxPoint x="422" y="321" as="sourcePoint" />
            <mxPoint x="567" y="351" as="targetPoint" />
          </mxGeometry>
        </mxCell>
        <mxCell id="n7JdzGCJAJezanz4exXI-3" value="" style="edgeStyle=orthogonalEdgeStyle;rounded=0;orthogonalLoop=1;jettySize=auto;html=1;endArrow=none;endFill=0;" edge="1" parent="1">
          <mxGeometry relative="1" as="geometry">
            <mxPoint x="423" y="321" as="sourcePoint" />
            <mxPoint x="269.0032154340836" y="351" as="targetPoint" />
            <Array as="points">
              <mxPoint x="269" y="321" />
            </Array>
          </mxGeometry>
        </mxCell>
        <mxCell id="n7JdzGCJAJezanz4exXI-8" value="Jugador" style="swimlane;fontStyle=1;align=center;verticalAlign=top;childLayout=stackLayout;horizontal=1;startSize=26;horizontalStack=0;resizeParent=1;resizeParentMax=0;resizeLast=0;collapsible=1;marginBottom=0;whiteSpace=wrap;html=1;" vertex="1" parent="1">
          <mxGeometry x="343" y="90" width="160" height="190" as="geometry" />
        </mxCell>
        <mxCell id="n7JdzGCJAJezanz4exXI-9" value="&lt;div&gt;nombre&lt;/div&gt;&lt;div&gt;tamaño&lt;/div&gt;&lt;div&gt;peso&lt;/div&gt;&lt;div&gt;velocidadAlCorrer&lt;/div&gt;&lt;div&gt;saltoVertical&lt;br&gt;&lt;/div&gt;" style="text;strokeColor=none;fillColor=none;align=left;verticalAlign=top;spacingLeft=4;spacingRight=4;overflow=hidden;rotatable=0;points=[[0,0.5],[1,0.5]];portConstraint=eastwest;whiteSpace=wrap;html=1;" vertex="1" parent="n7JdzGCJAJezanz4exXI-8">
          <mxGeometry y="26" width="160" height="84" as="geometry" />
        </mxCell>
        <mxCell id="n7JdzGCJAJezanz4exXI-10" value="" style="line;strokeWidth=1;fillColor=none;align=left;verticalAlign=middle;spacingTop=-1;spacingLeft=3;spacingRight=3;rotatable=0;labelPosition=right;points=[];portConstraint=eastwest;strokeColor=inherit;" vertex="1" parent="n7JdzGCJAJezanz4exXI-8">
          <mxGeometry y="110" width="160" height="8" as="geometry" />
        </mxCell>
        <mxCell id="n7JdzGCJAJezanz4exXI-11" value="&lt;div&gt;driblar()&lt;/div&gt;&lt;div&gt;pasar()&lt;/div&gt;&lt;div&gt;rebotar()&lt;/div&gt;&lt;div&gt;tirar()&lt;br&gt;&lt;/div&gt;" style="text;strokeColor=none;fillColor=none;align=left;verticalAlign=top;spacingLeft=4;spacingRight=4;overflow=hidden;rotatable=0;points=[[0,0.5],[1,0.5]];portConstraint=eastwest;whiteSpace=wrap;html=1;" vertex="1" parent="n7JdzGCJAJezanz4exXI-8">
          <mxGeometry y="118" width="160" height="72" as="geometry" />
        </mxCell>
        <mxCell id="n7JdzGCJAJezanz4exXI-12" value="Delantero" style="swimlane;fontStyle=1;align=center;verticalAlign=top;childLayout=stackLayout;horizontal=1;startSize=26;horizontalStack=0;resizeParent=1;resizeParentMax=0;resizeLast=0;collapsible=1;marginBottom=0;whiteSpace=wrap;html=1;" vertex="1" parent="1">
          <mxGeometry x="369" y="345" width="110" height="136" as="geometry" />
        </mxCell>
        <mxCell id="n7JdzGCJAJezanz4exXI-14" value="" style="line;strokeWidth=1;fillColor=none;align=left;verticalAlign=middle;spacingTop=-1;spacingLeft=3;spacingRight=3;rotatable=0;labelPosition=right;points=[];portConstraint=eastwest;strokeColor=inherit;" vertex="1" parent="n7JdzGCJAJezanz4exXI-12">
          <mxGeometry y="26" width="110" height="64" as="geometry" />
        </mxCell>
        <mxCell id="n7JdzGCJAJezanz4exXI-15" value="&lt;div&gt;&lt;br&gt;&lt;/div&gt;" style="text;strokeColor=none;fillColor=none;align=left;verticalAlign=top;spacingLeft=4;spacingRight=4;overflow=hidden;rotatable=0;points=[[0,0.5],[1,0.5]];portConstraint=eastwest;whiteSpace=wrap;html=1;" vertex="1" parent="n7JdzGCJAJezanz4exXI-12">
          <mxGeometry y="90" width="110" height="46" as="geometry" />
        </mxCell>
        <mxCell id="n7JdzGCJAJezanz4exXI-16" value="Defensa" style="swimlane;fontStyle=1;align=center;verticalAlign=top;childLayout=stackLayout;horizontal=1;startSize=26;horizontalStack=0;resizeParent=1;resizeParentMax=0;resizeLast=0;collapsible=1;marginBottom=0;whiteSpace=wrap;html=1;" vertex="1" parent="1">
          <mxGeometry x="209" y="345" width="110" height="90" as="geometry" />
        </mxCell>
        <mxCell id="n7JdzGCJAJezanz4exXI-17" value="" style="line;strokeWidth=1;fillColor=none;align=left;verticalAlign=middle;spacingTop=-1;spacingLeft=3;spacingRight=3;rotatable=0;labelPosition=right;points=[];portConstraint=eastwest;strokeColor=inherit;" vertex="1" parent="n7JdzGCJAJezanz4exXI-16">
          <mxGeometry y="26" width="110" height="14" as="geometry" />
        </mxCell>
        <mxCell id="n7JdzGCJAJezanz4exXI-18" value="&lt;div&gt;correrAlFrente&lt;/div&gt;&lt;div&gt;quitarBalon()&lt;br&gt;&lt;/div&gt;" style="text;strokeColor=none;fillColor=none;align=left;verticalAlign=top;spacingLeft=4;spacingRight=4;overflow=hidden;rotatable=0;points=[[0,0.5],[1,0.5]];portConstraint=eastwest;whiteSpace=wrap;html=1;" vertex="1" parent="n7JdzGCJAJezanz4exXI-16">
          <mxGeometry y="40" width="110" height="50" as="geometry" />
        </mxCell>
        <mxCell id="n7JdzGCJAJezanz4exXI-21" value="Centro" style="swimlane;fontStyle=1;align=center;verticalAlign=top;childLayout=stackLayout;horizontal=1;startSize=26;horizontalStack=0;resizeParent=1;resizeParentMax=0;resizeLast=0;collapsible=1;marginBottom=0;whiteSpace=wrap;html=1;" vertex="1" parent="1">
          <mxGeometry x="509" y="345" width="110" height="90" as="geometry" />
        </mxCell>
        <mxCell id="n7JdzGCJAJezanz4exXI-22" value="" style="line;strokeWidth=1;fillColor=none;align=left;verticalAlign=middle;spacingTop=-1;spacingLeft=3;spacingRight=3;rotatable=0;labelPosition=right;points=[];portConstraint=eastwest;strokeColor=inherit;" vertex="1" parent="n7JdzGCJAJezanz4exXI-21">
          <mxGeometry y="26" width="110" height="14" as="geometry" />
        </mxCell>
        <mxCell id="n7JdzGCJAJezanz4exXI-23" value="&lt;div&gt;retacarBalon()&lt;br&gt;&lt;/div&gt;" style="text;strokeColor=none;fillColor=none;align=left;verticalAlign=top;spacingLeft=4;spacingRight=4;overflow=hidden;rotatable=0;points=[[0,0.5],[1,0.5]];portConstraint=eastwest;whiteSpace=wrap;html=1;" vertex="1" parent="n7JdzGCJAJezanz4exXI-21">
          <mxGeometry y="40" width="110" height="50" as="geometry" />
        </mxCell>
        <mxCell id="n7JdzGCJAJezanz4exXI-24" value="Reloj" style="swimlane;fontStyle=1;align=center;verticalAlign=top;childLayout=stackLayout;horizontal=1;startSize=26;horizontalStack=0;resizeParent=1;resizeParentMax=0;resizeLast=0;collapsible=1;marginBottom=0;whiteSpace=wrap;html=1;" vertex="1" parent="1">
          <mxGeometry x="370" y="520" width="110" height="90" as="geometry" />
        </mxCell>
        <mxCell id="n7JdzGCJAJezanz4exXI-25" value="" style="line;strokeWidth=1;fillColor=none;align=left;verticalAlign=middle;spacingTop=-1;spacingLeft=3;spacingRight=3;rotatable=0;labelPosition=right;points=[];portConstraint=eastwest;strokeColor=inherit;" vertex="1" parent="n7JdzGCJAJezanz4exXI-24">
          <mxGeometry y="26" width="110" height="14" as="geometry" />
        </mxCell>
        <mxCell id="n7JdzGCJAJezanz4exXI-26" value="controlarTiempo()" style="text;strokeColor=none;fillColor=none;align=left;verticalAlign=top;spacingLeft=4;spacingRight=4;overflow=hidden;rotatable=0;points=[[0,0.5],[1,0.5]];portConstraint=eastwest;whiteSpace=wrap;html=1;" vertex="1" parent="n7JdzGCJAJezanz4exXI-24">
          <mxGeometry y="40" width="110" height="50" as="geometry" />
        </mxCell>
        <mxCell id="n7JdzGCJAJezanz4exXI-29" value="" style="edgeStyle=orthogonalEdgeStyle;rounded=0;orthogonalLoop=1;jettySize=auto;html=1;endArrow=none;endFill=0;" edge="1" parent="1">
          <mxGeometry relative="1" as="geometry">
            <mxPoint x="426.74" y="650.55" as="sourcePoint" />
            <mxPoint x="540" y="681" as="targetPoint" />
            <Array as="points">
              <mxPoint x="540" y="651" />
              <mxPoint x="540" y="681" />
            </Array>
          </mxGeometry>
        </mxCell>
        <mxCell id="n7JdzGCJAJezanz4exXI-30" value="" style="edgeStyle=orthogonalEdgeStyle;rounded=0;orthogonalLoop=1;jettySize=auto;html=1;endArrow=none;endFill=0;" edge="1" parent="1">
          <mxGeometry relative="1" as="geometry">
            <mxPoint x="473.04" y="650.55" as="sourcePoint" />
            <mxPoint x="319.0432154340836" y="680.55" as="targetPoint" />
            <Array as="points">
              <mxPoint x="319.04" y="650.55" />
            </Array>
          </mxGeometry>
        </mxCell>
        <mxCell id="n7JdzGCJAJezanz4exXI-31" value="" style="edgeStyle=orthogonalEdgeStyle;rounded=0;orthogonalLoop=1;jettySize=auto;html=1;entryX=0.646;entryY=1.009;entryDx=0;entryDy=0;entryPerimeter=0;endArrow=block;endFill=0;" edge="1" parent="1">
          <mxGeometry relative="1" as="geometry">
            <mxPoint x="427" y="650" as="sourcePoint" />
            <mxPoint x="427.40999999999997" y="611" as="targetPoint" />
            <Array as="points">
              <mxPoint x="426.35" y="640.55" />
              <mxPoint x="427.35" y="640.55" />
            </Array>
          </mxGeometry>
        </mxCell>
        <mxCell id="n7JdzGCJAJezanz4exXI-32" value="CronometroJuego" style="html=1;whiteSpace=wrap;" vertex="1" parent="1">
          <mxGeometry x="270" y="680" width="110" height="40" as="geometry" />
        </mxCell>
        <mxCell id="n7JdzGCJAJezanz4exXI-33" value="LapsoTiro" style="html=1;whiteSpace=wrap;" vertex="1" parent="1">
          <mxGeometry x="480" y="680" width="110" height="40" as="geometry" />
        </mxCell>
      </root>
    </mxGraphModel>
  </diagram>
  <diagram id="z6HZSFMaBjb86YyAVnP0" name="ejercicio-4">
    <mxGraphModel grid="1" page="1" gridSize="10" guides="1" tooltips="1" connect="1" arrows="1" fold="1" pageScale="1" pageWidth="827" pageHeight="1169" math="0" shadow="0">
      <root>
        <mxCell id="0" />
        <mxCell id="1" parent="0" />
        <mxCell id="U1VOEatc92i_wSrbkSjN-29" value="" style="edgeStyle=orthogonalEdgeStyle;rounded=0;orthogonalLoop=1;jettySize=auto;html=1;endArrow=none;endFill=0;" edge="1" parent="1">
          <mxGeometry relative="1" as="geometry">
            <mxPoint x="189.89" y="415" as="sourcePoint" />
            <mxPoint x="189.89" y="445" as="targetPoint" />
          </mxGeometry>
        </mxCell>
        <mxCell id="vwbUuSec_sqN-SCd3Bou-1" value="EquipoDeComputo" style="html=1;whiteSpace=wrap;" vertex="1" parent="1">
          <mxGeometry x="-129.11" y="320" width="160" height="60" as="geometry" />
        </mxCell>
        <mxCell id="U1VOEatc92i_wSrbkSjN-2" value="" style="edgeStyle=orthogonalEdgeStyle;rounded=0;orthogonalLoop=1;jettySize=auto;html=1;endArrow=none;endFill=0;" edge="1" parent="1">
          <mxGeometry relative="1" as="geometry">
            <mxPoint x="88.89" y="415" as="sourcePoint" />
            <mxPoint x="88.89" y="444.54999999999995" as="targetPoint" />
          </mxGeometry>
        </mxCell>
        <mxCell id="U1VOEatc92i_wSrbkSjN-3" value="" style="edgeStyle=orthogonalEdgeStyle;rounded=0;orthogonalLoop=1;jettySize=auto;html=1;endArrow=none;endFill=0;" edge="1" parent="1">
          <mxGeometry relative="1" as="geometry">
            <mxPoint x="290.89" y="415" as="sourcePoint" />
            <mxPoint x="-169.11" y="445" as="targetPoint" />
            <Array as="points">
              <mxPoint x="-169.11" y="415" />
              <mxPoint x="-169.11" y="445" />
            </Array>
          </mxGeometry>
        </mxCell>
        <mxCell id="NXgedKk3-QsTJCsUyXIc-20" value="" style="edgeStyle=orthogonalEdgeStyle;rounded=0;orthogonalLoop=1;jettySize=auto;html=1;entryX=0.36;entryY=1.024;entryDx=0;entryDy=0;endArrow=none;endFill=0;exitX=0;exitY=0.5;exitDx=0;exitDy=0;entryPerimeter=0;" edge="1" parent="1" source="U1VOEatc92i_wSrbkSjN-18">
          <mxGeometry relative="1" as="geometry">
            <mxPoint x="-201.11" y="480" as="sourcePoint" />
            <mxPoint x="167.6899999999997" y="603.7" as="targetPoint" />
            <Array as="points">
              <mxPoint x="-480.11" y="470" />
              <mxPoint x="-480.11" y="650" />
              <mxPoint x="167.89" y="650" />
            </Array>
          </mxGeometry>
        </mxCell>
        <mxCell id="U1VOEatc92i_wSrbkSjN-18" value="Altavoz" style="html=1;whiteSpace=wrap;" vertex="1" parent="1">
          <mxGeometry x="-199.11" y="445" width="70" height="50" as="geometry" />
        </mxCell>
        <mxCell id="U1VOEatc92i_wSrbkSjN-19" value="Gabinete" style="html=1;whiteSpace=wrap;" vertex="1" parent="1">
          <mxGeometry x="-101.61" y="445" width="105" height="50" as="geometry" />
        </mxCell>
        <mxCell id="U1VOEatc92i_wSrbkSjN-24" value="" style="endArrow=none;html=1;endSize=12;startArrow=diamondThin;startSize=14;startFill=0;edgeStyle=orthogonalEdgeStyle;align=left;verticalAlign=bottom;rounded=0;exitX=0.498;exitY=1.037;exitDx=0;exitDy=0;exitPerimeter=0;endFill=0;" edge="1" parent="1">
          <mxGeometry x="-0.7368" y="-8" relative="1" as="geometry">
            <mxPoint x="-49.609999999999886" y="380.77" as="sourcePoint" />
            <mxPoint x="-49.16000000000001" y="445" as="targetPoint" />
            <mxPoint as="offset" />
          </mxGeometry>
        </mxCell>
        <mxCell id="U1VOEatc92i_wSrbkSjN-25" value="Teclado" style="html=1;whiteSpace=wrap;" vertex="1" parent="1">
          <mxGeometry x="50.89" y="445" width="80" height="50" as="geometry" />
        </mxCell>
        <mxCell id="U1VOEatc92i_wSrbkSjN-28" value="Monitor" style="html=1;whiteSpace=wrap;" vertex="1" parent="1">
          <mxGeometry x="150.89" y="445" width="80" height="50" as="geometry" />
        </mxCell>
        <mxCell id="U1VOEatc92i_wSrbkSjN-33" value="" style="edgeStyle=orthogonalEdgeStyle;rounded=0;orthogonalLoop=1;jettySize=auto;html=1;endArrow=none;endFill=0;" edge="1" parent="1">
          <mxGeometry relative="1" as="geometry">
            <mxPoint x="349.89" y="415" as="sourcePoint" />
            <mxPoint x="349.89" y="445" as="targetPoint" />
          </mxGeometry>
        </mxCell>
        <mxCell id="U1VOEatc92i_wSrbkSjN-34" value="Raton" style="html=1;whiteSpace=wrap;" vertex="1" parent="1">
          <mxGeometry x="309.89" y="445" width="80" height="50" as="geometry" />
        </mxCell>
        <mxCell id="U1VOEatc92i_wSrbkSjN-35" value="1" style="text;html=1;align=center;verticalAlign=middle;resizable=0;points=[];autosize=1;strokeColor=none;fillColor=none;" vertex="1" parent="1">
          <mxGeometry x="-76.11" y="380" width="30" height="30" as="geometry" />
        </mxCell>
        <mxCell id="U1VOEatc92i_wSrbkSjN-36" value="1" style="text;html=1;align=center;verticalAlign=middle;resizable=0;points=[];autosize=1;strokeColor=none;fillColor=none;" vertex="1" parent="1">
          <mxGeometry x="-76.11" y="419" width="30" height="30" as="geometry" />
        </mxCell>
        <mxCell id="U1VOEatc92i_wSrbkSjN-37" value="2" style="text;html=1;align=center;verticalAlign=middle;resizable=0;points=[];autosize=1;strokeColor=none;fillColor=none;" vertex="1" parent="1">
          <mxGeometry x="-194.11" y="419" width="30" height="30" as="geometry" />
        </mxCell>
        <mxCell id="U1VOEatc92i_wSrbkSjN-38" value="1" style="text;html=1;align=center;verticalAlign=middle;resizable=0;points=[];autosize=1;strokeColor=none;fillColor=none;" vertex="1" parent="1">
          <mxGeometry x="65.89" y="420" width="30" height="30" as="geometry" />
        </mxCell>
        <mxCell id="U1VOEatc92i_wSrbkSjN-39" value="1" style="text;html=1;align=center;verticalAlign=middle;resizable=0;points=[];autosize=1;strokeColor=none;fillColor=none;" vertex="1" parent="1">
          <mxGeometry x="167.89" y="420" width="30" height="30" as="geometry" />
        </mxCell>
        <mxCell id="U1VOEatc92i_wSrbkSjN-40" value="1" style="text;html=1;align=center;verticalAlign=middle;resizable=0;points=[];autosize=1;strokeColor=none;fillColor=none;" vertex="1" parent="1">
          <mxGeometry x="323.89" y="420" width="30" height="30" as="geometry" />
        </mxCell>
        <mxCell id="U1VOEatc92i_wSrbkSjN-43" value="" style="edgeStyle=orthogonalEdgeStyle;rounded=0;orthogonalLoop=1;jettySize=auto;html=1;endArrow=none;endFill=0;" edge="1" parent="1">
          <mxGeometry relative="1" as="geometry">
            <mxPoint x="169.89" y="530" as="sourcePoint" />
            <mxPoint x="-408.11" y="560" as="targetPoint" />
            <Array as="points">
              <mxPoint x="-408.11" y="530" />
              <mxPoint x="-408.11" y="560" />
            </Array>
          </mxGeometry>
        </mxCell>
        <mxCell id="U1VOEatc92i_wSrbkSjN-44" value="UnidadDisquete" style="html=1;whiteSpace=wrap;" vertex="1" parent="1">
          <mxGeometry x="-460.11" y="560" width="110" height="50" as="geometry" />
        </mxCell>
        <mxCell id="U1VOEatc92i_wSrbkSjN-45" value="CD-ROM" style="html=1;whiteSpace=wrap;" vertex="1" parent="1">
          <mxGeometry x="-101.61" y="560" width="105" height="50" as="geometry" />
        </mxCell>
        <mxCell id="U1VOEatc92i_wSrbkSjN-46" value="" style="endArrow=none;html=1;endSize=12;startArrow=diamondThin;startSize=14;startFill=0;edgeStyle=orthogonalEdgeStyle;align=left;verticalAlign=bottom;rounded=0;exitX=0.498;exitY=1.037;exitDx=0;exitDy=0;exitPerimeter=0;endFill=0;" edge="1" parent="1">
          <mxGeometry x="-0.7368" y="-8" relative="1" as="geometry">
            <mxPoint x="-49.609999999999886" y="495.77" as="sourcePoint" />
            <mxPoint x="-49.16000000000001" y="560" as="targetPoint" />
            <mxPoint as="offset" />
          </mxGeometry>
        </mxCell>
        <mxCell id="U1VOEatc92i_wSrbkSjN-51" value="1" style="text;html=1;align=center;verticalAlign=middle;resizable=0;points=[];autosize=1;strokeColor=none;fillColor=none;" vertex="1" parent="1">
          <mxGeometry x="-76.11" y="495" width="30" height="30" as="geometry" />
        </mxCell>
        <mxCell id="U1VOEatc92i_wSrbkSjN-59" value="" style="edgeStyle=orthogonalEdgeStyle;rounded=0;orthogonalLoop=1;jettySize=auto;html=1;endArrow=none;endFill=0;" edge="1" parent="1">
          <mxGeometry relative="1" as="geometry">
            <mxPoint x="-281.11" y="530" as="sourcePoint" />
            <mxPoint x="-281.11" y="560" as="targetPoint" />
          </mxGeometry>
        </mxCell>
        <mxCell id="U1VOEatc92i_wSrbkSjN-60" value="UnidadDisco" style="html=1;whiteSpace=wrap;" vertex="1" parent="1">
          <mxGeometry x="-330.11" y="560" width="90" height="50" as="geometry" />
        </mxCell>
        <mxCell id="U1VOEatc92i_wSrbkSjN-62" value="" style="edgeStyle=orthogonalEdgeStyle;rounded=0;orthogonalLoop=1;jettySize=auto;html=1;endArrow=none;endFill=0;" edge="1" parent="1">
          <mxGeometry relative="1" as="geometry">
            <mxPoint x="-171.11" y="530" as="sourcePoint" />
            <mxPoint x="-171.11" y="560" as="targetPoint" />
          </mxGeometry>
        </mxCell>
        <mxCell id="U1VOEatc92i_wSrbkSjN-63" value="RAM" style="html=1;whiteSpace=wrap;" vertex="1" parent="1">
          <mxGeometry x="-210.11" y="560" width="80" height="50" as="geometry" />
        </mxCell>
        <mxCell id="U1VOEatc92i_wSrbkSjN-64" value="" style="edgeStyle=orthogonalEdgeStyle;rounded=0;orthogonalLoop=1;jettySize=auto;html=1;endArrow=none;endFill=0;" edge="1" parent="1">
          <mxGeometry relative="1" as="geometry">
            <mxPoint x="69.89" y="530" as="sourcePoint" />
            <mxPoint x="69.89" y="560" as="targetPoint" />
          </mxGeometry>
        </mxCell>
        <mxCell id="U1VOEatc92i_wSrbkSjN-65" value="TarjetaVideo" style="html=1;whiteSpace=wrap;" vertex="1" parent="1">
          <mxGeometry x="30.89" y="560" width="80" height="50" as="geometry" />
        </mxCell>
        <mxCell id="U1VOEatc92i_wSrbkSjN-66" value="" style="edgeStyle=orthogonalEdgeStyle;rounded=0;orthogonalLoop=1;jettySize=auto;html=1;endArrow=none;endFill=0;" edge="1" parent="1">
          <mxGeometry relative="1" as="geometry">
            <mxPoint x="169.89" y="530" as="sourcePoint" />
            <mxPoint x="169.89" y="560" as="targetPoint" />
          </mxGeometry>
        </mxCell>
        <mxCell id="U1VOEatc92i_wSrbkSjN-67" value="TarjetaSonido" style="html=1;whiteSpace=wrap;" vertex="1" parent="1">
          <mxGeometry x="130.89" y="560" width="80" height="50" as="geometry" />
        </mxCell>
        <mxCell id="U1VOEatc92i_wSrbkSjN-68" value="" style="edgeStyle=orthogonalEdgeStyle;rounded=0;orthogonalLoop=1;jettySize=auto;html=1;endArrow=none;endFill=0;" edge="1" parent="1">
          <mxGeometry relative="1" as="geometry">
            <mxPoint x="349.89" y="415" as="sourcePoint" />
            <mxPoint x="-169.11" y="445" as="targetPoint" />
            <Array as="points">
              <mxPoint x="-169.11" y="415" />
              <mxPoint x="-169.11" y="445" />
            </Array>
          </mxGeometry>
        </mxCell>
        <mxCell id="NXgedKk3-QsTJCsUyXIc-2" value="" style="edgeStyle=orthogonalEdgeStyle;rounded=0;orthogonalLoop=1;jettySize=auto;html=1;endArrow=none;endFill=0;" edge="1" parent="1">
          <mxGeometry relative="1" as="geometry">
            <mxPoint x="429.89" y="530" as="sourcePoint" />
            <mxPoint x="289.93321543408354" y="560" as="targetPoint" />
            <Array as="points">
              <mxPoint x="289.92999999999995" y="530" />
            </Array>
          </mxGeometry>
        </mxCell>
        <mxCell id="NXgedKk3-QsTJCsUyXIc-3" value="Boton" style="html=1;whiteSpace=wrap;" vertex="1" parent="1">
          <mxGeometry x="246.89" y="560" width="80" height="50" as="geometry" />
        </mxCell>
        <mxCell id="NXgedKk3-QsTJCsUyXIc-7" value="" style="endArrow=none;html=1;endSize=12;startArrow=diamondThin;startSize=14;startFill=0;edgeStyle=orthogonalEdgeStyle;align=left;verticalAlign=bottom;rounded=0;exitX=0.498;exitY=1.037;exitDx=0;exitDy=0;exitPerimeter=0;endFill=0;" edge="1" parent="1">
          <mxGeometry x="-0.7368" y="-8" relative="1" as="geometry">
            <mxPoint x="349.3900000000001" y="495.77" as="sourcePoint" />
            <mxPoint x="349.89" y="530" as="targetPoint" />
            <mxPoint as="offset" />
          </mxGeometry>
        </mxCell>
        <mxCell id="NXgedKk3-QsTJCsUyXIc-8" value="" style="edgeStyle=orthogonalEdgeStyle;rounded=0;orthogonalLoop=1;jettySize=auto;html=1;endArrow=none;endFill=0;" edge="1" parent="1">
          <mxGeometry relative="1" as="geometry">
            <mxPoint x="429.89" y="529.45" as="sourcePoint" />
            <mxPoint x="429.89" y="559.45" as="targetPoint" />
          </mxGeometry>
        </mxCell>
        <mxCell id="NXgedKk3-QsTJCsUyXIc-9" value="Bola" style="html=1;whiteSpace=wrap;" vertex="1" parent="1">
          <mxGeometry x="389.89" y="560" width="80" height="50" as="geometry" />
        </mxCell>
        <mxCell id="NXgedKk3-QsTJCsUyXIc-10" value="1" style="text;html=1;align=center;verticalAlign=middle;resizable=0;points=[];autosize=1;strokeColor=none;fillColor=none;" vertex="1" parent="1">
          <mxGeometry x="-433.11" y="534" width="30" height="30" as="geometry" />
        </mxCell>
        <mxCell id="NXgedKk3-QsTJCsUyXIc-11" value="1..*" style="text;html=1;align=center;verticalAlign=middle;resizable=0;points=[];autosize=1;strokeColor=none;fillColor=none;" vertex="1" parent="1">
          <mxGeometry x="-315.11" y="534" width="40" height="30" as="geometry" />
        </mxCell>
        <mxCell id="NXgedKk3-QsTJCsUyXIc-12" value="*" style="text;html=1;align=center;verticalAlign=middle;resizable=0;points=[];autosize=1;strokeColor=none;fillColor=none;" vertex="1" parent="1">
          <mxGeometry x="-194.11" y="537" width="30" height="30" as="geometry" />
        </mxCell>
        <mxCell id="NXgedKk3-QsTJCsUyXIc-13" value="1" style="text;html=1;align=center;verticalAlign=middle;resizable=0;points=[];autosize=1;strokeColor=none;fillColor=none;" vertex="1" parent="1">
          <mxGeometry x="-76.11" y="534" width="30" height="30" as="geometry" />
        </mxCell>
        <mxCell id="NXgedKk3-QsTJCsUyXIc-14" value="1" style="text;html=1;align=center;verticalAlign=middle;resizable=0;points=[];autosize=1;strokeColor=none;fillColor=none;" vertex="1" parent="1">
          <mxGeometry x="45.89" y="534" width="30" height="30" as="geometry" />
        </mxCell>
        <mxCell id="NXgedKk3-QsTJCsUyXIc-15" value="1" style="text;html=1;align=center;verticalAlign=middle;resizable=0;points=[];autosize=1;strokeColor=none;fillColor=none;" vertex="1" parent="1">
          <mxGeometry x="147.89" y="534" width="30" height="30" as="geometry" />
        </mxCell>
        <mxCell id="NXgedKk3-QsTJCsUyXIc-16" value="1..3" style="text;html=1;align=center;verticalAlign=middle;resizable=0;points=[];autosize=1;strokeColor=none;fillColor=none;" vertex="1" parent="1">
          <mxGeometry x="250.89" y="534" width="40" height="30" as="geometry" />
        </mxCell>
        <mxCell id="NXgedKk3-QsTJCsUyXIc-17" value="1" style="text;html=1;align=center;verticalAlign=middle;resizable=0;points=[];autosize=1;strokeColor=none;fillColor=none;" vertex="1" parent="1">
          <mxGeometry x="405.89" y="534" width="30" height="30" as="geometry" />
        </mxCell>
        <mxCell id="NXgedKk3-QsTJCsUyXIc-18" value="1" style="text;html=1;align=center;verticalAlign=middle;resizable=0;points=[];autosize=1;strokeColor=none;fillColor=none;" vertex="1" parent="1">
          <mxGeometry x="323.89" y="489" width="30" height="30" as="geometry" />
        </mxCell>
        <mxCell id="NXgedKk3-QsTJCsUyXIc-22" value="2" style="text;html=1;align=center;verticalAlign=middle;resizable=0;points=[];autosize=1;strokeColor=none;fillColor=none;" vertex="1" parent="1">
          <mxGeometry x="-225.11" y="468" width="30" height="30" as="geometry" />
        </mxCell>
        <mxCell id="NXgedKk3-QsTJCsUyXIc-23" value="1" style="text;html=1;align=center;verticalAlign=middle;resizable=0;points=[];autosize=1;strokeColor=none;fillColor=none;" vertex="1" parent="1">
          <mxGeometry x="161.89" y="605" width="30" height="30" as="geometry" />
        </mxCell>
        <mxCell id="NXgedKk3-QsTJCsUyXIc-26" value="" style="endArrow=block;startArrow=none;endFill=1;startFill=0;endSize=8;html=1;verticalAlign=bottom;dashed=1;labelBackgroundColor=none;rounded=0;strokeColor=none;" edge="1" parent="1">
          <mxGeometry width="160" relative="1" as="geometry">
            <mxPoint x="-109.11" y="690" as="sourcePoint" />
            <mxPoint x="50.89" y="690" as="targetPoint" />
          </mxGeometry>
        </mxCell>
        <mxCell id="NXgedKk3-QsTJCsUyXIc-27" value="" style="endArrow=block;endSize=16;endFill=0;html=1;rounded=0;strokeColor=#000000;strokeWidth=0;" edge="1" parent="1">
          <mxGeometry width="160" relative="1" as="geometry">
            <mxPoint x="-410.11" y="690" as="sourcePoint" />
            <mxPoint x="-250.11" y="690" as="targetPoint" />
          </mxGeometry>
        </mxCell>
        <mxCell id="NXgedKk3-QsTJCsUyXIc-29" value="conectado a" style="text;html=1;align=center;verticalAlign=middle;resizable=0;points=[];autosize=1;strokeColor=none;fillColor=none;" vertex="1" parent="1">
          <mxGeometry x="-215.11" y="623" width="90" height="30" as="geometry" />
        </mxCell>
      </root>
    </mxGraphModel>
  </diagram>
  <diagram id="t7vMH93jFzmDfFqvtzPK" name="ejercicio-5">
    <mxGraphModel grid="1" page="1" gridSize="10" guides="1" tooltips="1" connect="1" arrows="1" fold="1" pageScale="1" pageWidth="827" pageHeight="1169" math="0" shadow="0">
      <root>
        <mxCell id="0" />
        <mxCell id="1" parent="0" />
        <mxCell id="la-WD5leMnOLMShR7pJt-2" value="" style="endArrow=none;dashed=1;endFill=0;endSize=12;html=1;rounded=0;" edge="1" parent="1">
          <mxGeometry width="160" relative="1" as="geometry">
            <mxPoint x="-615" y="430" as="sourcePoint" />
            <mxPoint x="-440" y="430" as="targetPoint" />
          </mxGeometry>
        </mxCell>
        <mxCell id="Xq7dD0thhKHLnZf5BLV5-1" value="" style="edgeStyle=orthogonalEdgeStyle;rounded=0;orthogonalLoop=1;jettySize=auto;html=1;endArrow=none;endFill=0;" edge="1" parent="1">
          <mxGeometry relative="1" as="geometry">
            <mxPoint x="-200.11" y="415" as="sourcePoint" />
            <mxPoint x="-200.11" y="445" as="targetPoint" />
          </mxGeometry>
        </mxCell>
        <mxCell id="Xq7dD0thhKHLnZf5BLV5-2" value="Comida" style="html=1;whiteSpace=wrap;" vertex="1" parent="1">
          <mxGeometry x="-519.11" y="320" width="160" height="60" as="geometry" />
        </mxCell>
        <mxCell id="Xq7dD0thhKHLnZf5BLV5-3" value="" style="edgeStyle=orthogonalEdgeStyle;rounded=0;orthogonalLoop=1;jettySize=auto;html=1;endArrow=none;endFill=0;" edge="1" parent="1">
          <mxGeometry relative="1" as="geometry">
            <mxPoint x="-312" y="415" as="sourcePoint" />
            <mxPoint x="-312" y="444.54999999999995" as="targetPoint" />
          </mxGeometry>
        </mxCell>
        <mxCell id="Xq7dD0thhKHLnZf5BLV5-4" value="Comida" style="html=1;whiteSpace=wrap;" vertex="1" parent="1">
          <mxGeometry x="-650" y="445" width="70" height="50" as="geometry" />
        </mxCell>
        <mxCell id="Xq7dD0thhKHLnZf5BLV5-5" value="Ensalada" style="html=1;whiteSpace=wrap;" vertex="1" parent="1">
          <mxGeometry x="-491.61" y="445" width="105" height="50" as="geometry" />
        </mxCell>
        <mxCell id="Xq7dD0thhKHLnZf5BLV5-6" value="" style="endArrow=none;html=1;endSize=12;startArrow=diamondThin;startSize=14;startFill=0;edgeStyle=orthogonalEdgeStyle;align=left;verticalAlign=bottom;rounded=0;exitX=0.498;exitY=1.037;exitDx=0;exitDy=0;exitPerimeter=0;endFill=0;" edge="1" parent="1">
          <mxGeometry x="-0.7368" y="-8" relative="1" as="geometry">
            <mxPoint x="-439.6099999999999" y="380.77" as="sourcePoint" />
            <mxPoint x="-439.16" y="445" as="targetPoint" />
            <mxPoint as="offset" />
          </mxGeometry>
        </mxCell>
        <mxCell id="Xq7dD0thhKHLnZf5BLV5-7" value="PlatoFuerte" style="html=1;whiteSpace=wrap;" vertex="1" parent="1">
          <mxGeometry x="-350" y="445" width="80" height="50" as="geometry" />
        </mxCell>
        <mxCell id="Xq7dD0thhKHLnZf5BLV5-8" value="Postre" style="html=1;whiteSpace=wrap;" vertex="1" parent="1">
          <mxGeometry x="-239.11" y="445" width="80" height="50" as="geometry" />
        </mxCell>
        <mxCell id="Xq7dD0thhKHLnZf5BLV5-9" value="1" style="text;html=1;align=center;verticalAlign=middle;resizable=0;points=[];autosize=1;strokeColor=none;fillColor=none;" vertex="1" parent="1">
          <mxGeometry x="-466.11" y="380" width="30" height="30" as="geometry" />
        </mxCell>
        <mxCell id="la-WD5leMnOLMShR7pJt-1" value="" style="edgeStyle=orthogonalEdgeStyle;rounded=0;orthogonalLoop=1;jettySize=auto;html=1;endArrow=none;endFill=0;" edge="1" parent="1">
          <mxGeometry relative="1" as="geometry">
            <mxPoint x="-200" y="415" as="sourcePoint" />
            <mxPoint x="-615" y="445" as="targetPoint" />
            <Array as="points">
              <mxPoint x="-615" y="415" />
              <mxPoint x="-615" y="445" />
            </Array>
          </mxGeometry>
        </mxCell>
        <mxCell id="la-WD5leMnOLMShR7pJt-3" value="{0}" style="text;html=1;align=center;verticalAlign=middle;resizable=0;points=[];autosize=1;strokeColor=none;fillColor=none;" vertex="1" parent="1">
          <mxGeometry x="-555.11" y="423" width="40" height="30" as="geometry" />
        </mxCell>
        <mxCell id="la-WD5leMnOLMShR7pJt-4" value="1" style="text;html=1;align=center;verticalAlign=middle;resizable=0;points=[];autosize=1;strokeColor=none;fillColor=none;" vertex="1" parent="1">
          <mxGeometry x="-461" y="422" width="30" height="30" as="geometry" />
        </mxCell>
        <mxCell id="la-WD5leMnOLMShR7pJt-5" value="1" style="text;html=1;align=center;verticalAlign=middle;resizable=0;points=[];autosize=1;strokeColor=none;fillColor=none;" vertex="1" parent="1">
          <mxGeometry x="-333" y="422" width="30" height="30" as="geometry" />
        </mxCell>
        <mxCell id="la-WD5leMnOLMShR7pJt-6" value="1" style="text;html=1;align=center;verticalAlign=middle;resizable=0;points=[];autosize=1;strokeColor=none;fillColor=none;" vertex="1" parent="1">
          <mxGeometry x="-221" y="421" width="30" height="30" as="geometry" />
        </mxCell>
        <mxCell id="la-WD5leMnOLMShR7pJt-7" value="1" style="text;html=1;align=center;verticalAlign=middle;resizable=0;points=[];autosize=1;strokeColor=none;fillColor=none;" vertex="1" parent="1">
          <mxGeometry x="-638" y="421" width="30" height="30" as="geometry" />
        </mxCell>
      </root>
    </mxGraphModel>
  </diagram>
  <diagram id="KopBEreXNe5P7120ff_w" name="ejercicio-6">
    <mxGraphModel grid="1" page="1" gridSize="10" guides="1" tooltips="1" connect="1" arrows="1" fold="1" pageScale="1" pageWidth="827" pageHeight="1169" math="0" shadow="0">
      <root>
        <mxCell id="0" />
        <mxCell id="1" parent="0" />
        <mxCell id="ISGLbj7ZcGSdDE5ovO-I-8" value="" style="edgeStyle=orthogonalEdgeStyle;rounded=0;orthogonalLoop=1;jettySize=auto;html=1;endArrow=none;endFill=0;entryX=0.505;entryY=0.013;entryDx=0;entryDy=0;entryPerimeter=0;" edge="1" parent="1">
          <mxGeometry relative="1" as="geometry">
            <mxPoint x="681.9" y="332.84" as="sourcePoint" />
            <mxPoint x="682" y="462.99999999999994" as="targetPoint" />
            <Array as="points">
              <mxPoint x="682.05" y="382.84" />
              <mxPoint x="682.05" y="382.84" />
            </Array>
          </mxGeometry>
        </mxCell>
        <mxCell id="eCNr4aoQ40jpE6DmyGVT-6" value="" style="edgeStyle=orthogonalEdgeStyle;rounded=0;orthogonalLoop=1;jettySize=auto;html=1;endArrow=none;endFill=0;" edge="1" parent="1" source="Ih1TAP98GNlAOvTNref9-21">
          <mxGeometry relative="1" as="geometry">
            <mxPoint x="147" y="431" as="targetPoint" />
            <Array as="points">
              <mxPoint x="147" y="411" />
              <mxPoint x="147" y="411" />
            </Array>
          </mxGeometry>
        </mxCell>
        <mxCell id="Ih1TAP98GNlAOvTNref9-21" value="EdificioCampus" style="swimlane;fontStyle=1;align=center;verticalAlign=top;childLayout=stackLayout;horizontal=1;startSize=26;horizontalStack=0;resizeParent=1;resizeParentMax=0;resizeLast=0;collapsible=1;marginBottom=0;whiteSpace=wrap;html=1;" vertex="1" parent="1">
          <mxGeometry x="52" y="231" width="190" height="120" as="geometry" />
        </mxCell>
        <mxCell id="Ih1TAP98GNlAOvTNref9-22" value="&lt;div&gt;- codigoCampus&lt;/div&gt;&lt;div&gt;- descripcionCampus&lt;/div&gt;&lt;div&gt;&lt;br&gt;&lt;/div&gt;" style="text;strokeColor=none;fillColor=none;align=left;verticalAlign=top;spacingLeft=4;spacingRight=4;overflow=hidden;rotatable=0;points=[[0,0.5],[1,0.5]];portConstraint=eastwest;whiteSpace=wrap;html=1;" vertex="1" parent="Ih1TAP98GNlAOvTNref9-21">
          <mxGeometry y="26" width="190" height="44" as="geometry" />
        </mxCell>
        <mxCell id="Ih1TAP98GNlAOvTNref9-23" value="" style="line;strokeWidth=1;fillColor=none;align=left;verticalAlign=middle;spacingTop=-1;spacingLeft=3;spacingRight=3;rotatable=0;labelPosition=right;points=[];portConstraint=eastwest;strokeColor=inherit;" vertex="1" parent="Ih1TAP98GNlAOvTNref9-21">
          <mxGeometry y="70" width="190" height="8" as="geometry" />
        </mxCell>
        <mxCell id="Ih1TAP98GNlAOvTNref9-24" value="+ agregarEdificio()" style="text;strokeColor=none;fillColor=none;align=left;verticalAlign=top;spacingLeft=4;spacingRight=4;overflow=hidden;rotatable=0;points=[[0,0.5],[1,0.5]];portConstraint=eastwest;whiteSpace=wrap;html=1;" vertex="1" parent="Ih1TAP98GNlAOvTNref9-21">
          <mxGeometry y="78" width="190" height="42" as="geometry" />
        </mxCell>
        <mxCell id="ISGLbj7ZcGSdDE5ovO-I-22" value="" style="edgeStyle=orthogonalEdgeStyle;rounded=0;orthogonalLoop=1;jettySize=auto;html=1;endArrow=none;endFill=0;" edge="1" parent="1" source="Ih1TAP98GNlAOvTNref9-25" target="ISGLbj7ZcGSdDE5ovO-I-18">
          <mxGeometry relative="1" as="geometry" />
        </mxCell>
        <mxCell id="Ih1TAP98GNlAOvTNref9-25" value="Computadora" style="swimlane;fontStyle=1;align=center;verticalAlign=top;childLayout=stackLayout;horizontal=1;startSize=26;horizontalStack=0;resizeParent=1;resizeParentMax=0;resizeLast=0;collapsible=1;marginBottom=0;whiteSpace=wrap;html=1;" vertex="1" parent="1">
          <mxGeometry x="52" y="431" width="190" height="370" as="geometry" />
        </mxCell>
        <mxCell id="Ih1TAP98GNlAOvTNref9-26" value="- numeroInventarioHardware&lt;br&gt;- tipoComputadora &lt;br&gt;- nombreMarca &lt;br&gt;- modelo &lt;br&gt;- numeroSerie &lt;br&gt;- fechaCompra &lt;br&gt;- costoCompra &lt;br&gt;- costoReemplazo &lt;br&gt;- tamanoMemoria &lt;br&gt;- capacidadDiscoDuro &lt;br&gt;- capacidadSegundoDiscoDuro &lt;br&gt;- discoOptico&lt;br&gt;- garantia &lt;br&gt;- codigoCampus &lt;br&gt;- ubicacionSala &lt;br&gt;- numeroDistribuidor " style="text;strokeColor=none;fillColor=none;align=left;verticalAlign=top;spacingLeft=4;spacingRight=4;overflow=hidden;rotatable=0;points=[[0,0.5],[1,0.5]];portConstraint=eastwest;whiteSpace=wrap;html=1;" vertex="1" parent="Ih1TAP98GNlAOvTNref9-25">
          <mxGeometry y="26" width="190" height="254" as="geometry" />
        </mxCell>
        <mxCell id="Ih1TAP98GNlAOvTNref9-27" value="" style="line;strokeWidth=1;fillColor=none;align=left;verticalAlign=middle;spacingTop=-1;spacingLeft=3;spacingRight=3;rotatable=0;labelPosition=right;points=[];portConstraint=eastwest;strokeColor=inherit;" vertex="1" parent="Ih1TAP98GNlAOvTNref9-25">
          <mxGeometry y="280" width="190" height="8" as="geometry" />
        </mxCell>
        <mxCell id="Ih1TAP98GNlAOvTNref9-28" value="+ agregarComputadora()&lt;br&gt;+ cambiarComputadora()&lt;br&gt;+ eliminarComputadora()&lt;br&gt;+ obtenerComputadora()" style="text;strokeColor=none;fillColor=none;align=left;verticalAlign=top;spacingLeft=4;spacingRight=4;overflow=hidden;rotatable=0;points=[[0,0.5],[1,0.5]];portConstraint=eastwest;whiteSpace=wrap;html=1;" vertex="1" parent="Ih1TAP98GNlAOvTNref9-25">
          <mxGeometry y="288" width="190" height="82" as="geometry" />
        </mxCell>
        <mxCell id="eCNr4aoQ40jpE6DmyGVT-7" value="1" style="text;html=1;align=center;verticalAlign=middle;resizable=0;points=[];autosize=1;strokeColor=none;fillColor=none;" vertex="1" parent="1">
          <mxGeometry x="142" y="348" width="30" height="30" as="geometry" />
        </mxCell>
        <mxCell id="eCNr4aoQ40jpE6DmyGVT-8" value="*" style="text;html=1;align=center;verticalAlign=middle;resizable=0;points=[];autosize=1;strokeColor=none;fillColor=none;fontSize=18;" vertex="1" parent="1">
          <mxGeometry x="142" y="400" width="30" height="40" as="geometry" />
        </mxCell>
        <mxCell id="ISGLbj7ZcGSdDE5ovO-I-15" value="" style="edgeStyle=orthogonalEdgeStyle;rounded=0;orthogonalLoop=1;jettySize=auto;html=1;endArrow=none;endFill=0;" edge="1" parent="1" source="eCNr4aoQ40jpE6DmyGVT-9" target="ISGLbj7ZcGSdDE5ovO-I-11">
          <mxGeometry relative="1" as="geometry" />
        </mxCell>
        <mxCell id="eCNr4aoQ40jpE6DmyGVT-9" value="Software" style="swimlane;fontStyle=1;align=center;verticalAlign=top;childLayout=stackLayout;horizontal=1;startSize=26;horizontalStack=0;resizeParent=1;resizeParentMax=0;resizeLast=0;collapsible=1;marginBottom=0;whiteSpace=wrap;html=1;" vertex="1" parent="1">
          <mxGeometry x="586" y="456" width="190" height="320" as="geometry" />
        </mxCell>
        <mxCell id="eCNr4aoQ40jpE6DmyGVT-10" value="&lt;div&gt;- numeroInventarioSoftware &lt;br&gt;- titulo &lt;br&gt;- nombreSistemaOperativo &lt;br&gt;- numeroVersion &lt;br&gt;- editor &lt;br&gt;- codigoCategoriaSoftware &lt;br&gt;- marcaComputadora &lt;br&gt;- memoriaRequerida &lt;br&gt;- licenciaSitio &lt;br&gt;- numeroDeCopias &lt;br&gt;- costoSoftware &lt;br&gt;- numeroEmpleado &lt;br&gt;&lt;/div&gt;" style="text;strokeColor=none;fillColor=none;align=left;verticalAlign=top;spacingLeft=4;spacingRight=4;overflow=hidden;rotatable=0;points=[[0,0.5],[1,0.5]];portConstraint=eastwest;whiteSpace=wrap;html=1;" vertex="1" parent="eCNr4aoQ40jpE6DmyGVT-9">
          <mxGeometry y="26" width="190" height="194" as="geometry" />
        </mxCell>
        <mxCell id="eCNr4aoQ40jpE6DmyGVT-11" value="" style="line;strokeWidth=1;fillColor=none;align=left;verticalAlign=middle;spacingTop=-1;spacingLeft=3;spacingRight=3;rotatable=0;labelPosition=right;points=[];portConstraint=eastwest;strokeColor=inherit;" vertex="1" parent="eCNr4aoQ40jpE6DmyGVT-9">
          <mxGeometry y="220" width="190" height="8" as="geometry" />
        </mxCell>
        <mxCell id="eCNr4aoQ40jpE6DmyGVT-12" value="+ agregarSoftware()&lt;br&gt;+ cambiarSoftware()&lt;br&gt;+ obtenerSoftware()&lt;br&gt;+ obtenerTituloSoftware()&lt;br&gt;+ eliminarSoftware()" style="text;strokeColor=none;fillColor=none;align=left;verticalAlign=top;spacingLeft=4;spacingRight=4;overflow=hidden;rotatable=0;points=[[0,0.5],[1,0.5]];portConstraint=eastwest;whiteSpace=wrap;html=1;" vertex="1" parent="eCNr4aoQ40jpE6DmyGVT-9">
          <mxGeometry y="228" width="190" height="92" as="geometry" />
        </mxCell>
        <mxCell id="eCNr4aoQ40jpE6DmyGVT-13" value="1" style="text;html=1;align=center;verticalAlign=middle;resizable=0;points=[];autosize=1;strokeColor=none;fillColor=none;" vertex="1" parent="1">
          <mxGeometry x="681" y="573" width="30" height="30" as="geometry" />
        </mxCell>
        <mxCell id="eCNr4aoQ40jpE6DmyGVT-14" value="HardwareSoftware" style="swimlane;fontStyle=1;align=center;verticalAlign=top;childLayout=stackLayout;horizontal=1;startSize=26;horizontalStack=0;resizeParent=1;resizeParentMax=0;resizeLast=0;collapsible=1;marginBottom=0;whiteSpace=wrap;html=1;" vertex="1" parent="1">
          <mxGeometry x="332" y="293" width="190" height="170" as="geometry" />
        </mxCell>
        <mxCell id="eCNr4aoQ40jpE6DmyGVT-15" value="- numeroInventarioHardware &lt;br&gt;- numeroInventarioSoftware &lt;br&gt;&lt;div&gt;&lt;br&gt;&lt;/div&gt;" style="text;strokeColor=none;fillColor=none;align=left;verticalAlign=top;spacingLeft=4;spacingRight=4;overflow=hidden;rotatable=0;points=[[0,0.5],[1,0.5]];portConstraint=eastwest;whiteSpace=wrap;html=1;" vertex="1" parent="eCNr4aoQ40jpE6DmyGVT-14">
          <mxGeometry y="26" width="190" height="44" as="geometry" />
        </mxCell>
        <mxCell id="eCNr4aoQ40jpE6DmyGVT-16" value="" style="line;strokeWidth=1;fillColor=none;align=left;verticalAlign=middle;spacingTop=-1;spacingLeft=3;spacingRight=3;rotatable=0;labelPosition=right;points=[];portConstraint=eastwest;strokeColor=inherit;" vertex="1" parent="eCNr4aoQ40jpE6DmyGVT-14">
          <mxGeometry y="70" width="190" height="8" as="geometry" />
        </mxCell>
        <mxCell id="eCNr4aoQ40jpE6DmyGVT-17" value="+ instalarSoftware()&lt;br&gt;+ actualizarVersion()&lt;br&gt;+ eliminarSoftware()&lt;br&gt;+ obtenerSoftware()&lt;br&gt;+ obtenerHardware()" style="text;strokeColor=none;fillColor=none;align=left;verticalAlign=top;spacingLeft=4;spacingRight=4;overflow=hidden;rotatable=0;points=[[0,0.5],[1,0.5]];portConstraint=eastwest;whiteSpace=wrap;html=1;" vertex="1" parent="eCNr4aoQ40jpE6DmyGVT-14">
          <mxGeometry y="78" width="190" height="92" as="geometry" />
        </mxCell>
        <mxCell id="eCNr4aoQ40jpE6DmyGVT-22" value="" style="endArrow=none;endFill=0;endSize=12;html=1;rounded=0;entryX=-0.011;entryY=0.624;entryDx=0;entryDy=0;entryPerimeter=0;" edge="1" parent="1">
          <mxGeometry width="160" relative="1" as="geometry">
            <mxPoint x="243" y="599" as="sourcePoint" />
            <mxPoint x="585.91" y="599.0559999999999" as="targetPoint" />
          </mxGeometry>
        </mxCell>
        <mxCell id="eCNr4aoQ40jpE6DmyGVT-27" value="" style="edgeStyle=orthogonalEdgeStyle;rounded=0;orthogonalLoop=1;jettySize=auto;html=1;endArrow=none;endFill=0;dashed=1;" edge="1" parent="1">
          <mxGeometry relative="1" as="geometry">
            <mxPoint x="422" y="463" as="sourcePoint" />
            <mxPoint x="422.2" y="601" as="targetPoint" />
            <Array as="points">
              <mxPoint x="422" y="523" />
              <mxPoint x="422" y="523" />
            </Array>
          </mxGeometry>
        </mxCell>
        <mxCell id="eCNr4aoQ40jpE6DmyGVT-29" value="&lt;font style=&quot;font-size: 18px;&quot;&gt;*&lt;/font&gt;" style="text;html=1;align=center;verticalAlign=middle;resizable=0;points=[];autosize=1;strokeColor=none;fillColor=none;" vertex="1" parent="1">
          <mxGeometry x="238" y="594" width="30" height="40" as="geometry" />
        </mxCell>
        <mxCell id="ISGLbj7ZcGSdDE5ovO-I-1" value="&lt;font style=&quot;font-size: 18px;&quot;&gt;*&lt;/font&gt;" style="text;html=1;align=center;verticalAlign=middle;resizable=0;points=[];autosize=1;strokeColor=none;fillColor=none;" vertex="1" parent="1">
          <mxGeometry x="562" y="593" width="30" height="40" as="geometry" />
        </mxCell>
        <mxCell id="ISGLbj7ZcGSdDE5ovO-I-2" value="ExpertoSoftware" style="swimlane;fontStyle=1;align=center;verticalAlign=top;childLayout=stackLayout;horizontal=1;startSize=26;horizontalStack=0;resizeParent=1;resizeParentMax=0;resizeLast=0;collapsible=1;marginBottom=0;whiteSpace=wrap;html=1;" vertex="1" parent="1">
          <mxGeometry x="592" y="90" width="180" height="240" as="geometry" />
        </mxCell>
        <mxCell id="ISGLbj7ZcGSdDE5ovO-I-3" value="- numeroEmpleado (String)&lt;br&gt;- apellidoPaterno (String)&lt;br&gt;- primerNombre (String)&lt;br&gt;- telefonoOficina (String)&lt;br&gt;- email (String)&lt;br&gt;- codigoDepartamento (String)&lt;br&gt;- ensenaCurso (boolean)" style="text;strokeColor=none;fillColor=none;align=left;verticalAlign=top;spacingLeft=4;spacingRight=4;overflow=hidden;rotatable=0;points=[[0,0.5],[1,0.5]];portConstraint=eastwest;whiteSpace=wrap;html=1;" vertex="1" parent="ISGLbj7ZcGSdDE5ovO-I-2">
          <mxGeometry y="26" width="180" height="114" as="geometry" />
        </mxCell>
        <mxCell id="ISGLbj7ZcGSdDE5ovO-I-4" value="" style="line;strokeWidth=1;fillColor=none;align=left;verticalAlign=middle;spacingTop=-1;spacingLeft=3;spacingRight=3;rotatable=0;labelPosition=right;points=[];portConstraint=eastwest;strokeColor=inherit;" vertex="1" parent="ISGLbj7ZcGSdDE5ovO-I-2">
          <mxGeometry y="140" width="180" height="8" as="geometry" />
        </mxCell>
        <mxCell id="ISGLbj7ZcGSdDE5ovO-I-5" value="+ agregarExperto()&lt;br&gt;+ cambiarExperto()&lt;br&gt;+ eliminarExperto()&lt;br&gt;+ obtenerExperto()" style="text;strokeColor=none;fillColor=none;align=left;verticalAlign=top;spacingLeft=4;spacingRight=4;overflow=hidden;rotatable=0;points=[[0,0.5],[1,0.5]];portConstraint=eastwest;whiteSpace=wrap;html=1;" vertex="1" parent="ISGLbj7ZcGSdDE5ovO-I-2">
          <mxGeometry y="148" width="180" height="92" as="geometry" />
        </mxCell>
        <mxCell id="ISGLbj7ZcGSdDE5ovO-I-9" value="1" style="text;html=1;align=center;verticalAlign=middle;resizable=0;points=[];autosize=1;strokeColor=none;fillColor=none;" vertex="1" parent="1">
          <mxGeometry x="678" y="330" width="30" height="30" as="geometry" />
        </mxCell>
        <mxCell id="ISGLbj7ZcGSdDE5ovO-I-10" value="1" style="text;html=1;align=center;verticalAlign=middle;resizable=0;points=[];autosize=1;strokeColor=none;fillColor=none;" vertex="1" parent="1">
          <mxGeometry x="678" y="426" width="30" height="30" as="geometry" />
        </mxCell>
        <mxCell id="ISGLbj7ZcGSdDE5ovO-I-11" value="CategoriaSoftware" style="swimlane;fontStyle=1;align=center;verticalAlign=top;childLayout=stackLayout;horizontal=1;startSize=26;horizontalStack=0;resizeParent=1;resizeParentMax=0;resizeLast=0;collapsible=1;marginBottom=0;whiteSpace=wrap;html=1;" vertex="1" parent="1">
          <mxGeometry x="586" y="856" width="190" height="170" as="geometry" />
        </mxCell>
        <mxCell id="ISGLbj7ZcGSdDE5ovO-I-12" value="&lt;div&gt;- codigoCategoriaSoftware &lt;br&gt;- descripcionCategoriaSoftware &lt;br&gt;&lt;/div&gt;" style="text;strokeColor=none;fillColor=none;align=left;verticalAlign=top;spacingLeft=4;spacingRight=4;overflow=hidden;rotatable=0;points=[[0,0.5],[1,0.5]];portConstraint=eastwest;whiteSpace=wrap;html=1;" vertex="1" parent="ISGLbj7ZcGSdDE5ovO-I-11">
          <mxGeometry y="26" width="190" height="54" as="geometry" />
        </mxCell>
        <mxCell id="ISGLbj7ZcGSdDE5ovO-I-13" value="" style="line;strokeWidth=1;fillColor=none;align=left;verticalAlign=middle;spacingTop=-1;spacingLeft=3;spacingRight=3;rotatable=0;labelPosition=right;points=[];portConstraint=eastwest;strokeColor=inherit;" vertex="1" parent="ISGLbj7ZcGSdDE5ovO-I-11">
          <mxGeometry y="80" width="190" height="8" as="geometry" />
        </mxCell>
        <mxCell id="ISGLbj7ZcGSdDE5ovO-I-14" value="+ agregarNuevaCategoria()&lt;br&gt;+ cambiarCategoria()&lt;br&gt;+ eliminarCategoria()&lt;br&gt;+ obtenerCategoria()" style="text;strokeColor=none;fillColor=none;align=left;verticalAlign=top;spacingLeft=4;spacingRight=4;overflow=hidden;rotatable=0;points=[[0,0.5],[1,0.5]];portConstraint=eastwest;whiteSpace=wrap;html=1;" vertex="1" parent="ISGLbj7ZcGSdDE5ovO-I-11">
          <mxGeometry y="88" width="190" height="82" as="geometry" />
        </mxCell>
        <mxCell id="ISGLbj7ZcGSdDE5ovO-I-16" value="*" style="text;html=1;align=center;verticalAlign=middle;resizable=0;points=[];autosize=1;strokeColor=none;fillColor=none;fontSize=18;" vertex="1" parent="1">
          <mxGeometry x="676" y="768" width="30" height="40" as="geometry" />
        </mxCell>
        <mxCell id="ISGLbj7ZcGSdDE5ovO-I-17" value="1" style="text;html=1;align=center;verticalAlign=middle;resizable=0;points=[];autosize=1;strokeColor=none;fillColor=none;" vertex="1" parent="1">
          <mxGeometry x="675" y="828" width="30" height="30" as="geometry" />
        </mxCell>
        <mxCell id="ISGLbj7ZcGSdDE5ovO-I-18" value="SistemaOperativo" style="swimlane;fontStyle=1;align=center;verticalAlign=top;childLayout=stackLayout;horizontal=1;startSize=26;horizontalStack=0;resizeParent=1;resizeParentMax=0;resizeLast=0;collapsible=1;marginBottom=0;whiteSpace=wrap;html=1;" vertex="1" parent="1">
          <mxGeometry x="52" y="881" width="190" height="160" as="geometry" />
        </mxCell>
        <mxCell id="ISGLbj7ZcGSdDE5ovO-I-19" value="- codigoSistemaOperativo &lt;br&gt;- significadoSistemaOperativo" style="text;strokeColor=none;fillColor=none;align=left;verticalAlign=top;spacingLeft=4;spacingRight=4;overflow=hidden;rotatable=0;points=[[0,0.5],[1,0.5]];portConstraint=eastwest;whiteSpace=wrap;html=1;" vertex="1" parent="ISGLbj7ZcGSdDE5ovO-I-18">
          <mxGeometry y="26" width="190" height="44" as="geometry" />
        </mxCell>
        <mxCell id="ISGLbj7ZcGSdDE5ovO-I-20" value="" style="line;strokeWidth=1;fillColor=none;align=left;verticalAlign=middle;spacingTop=-1;spacingLeft=3;spacingRight=3;rotatable=0;labelPosition=right;points=[];portConstraint=eastwest;strokeColor=inherit;" vertex="1" parent="ISGLbj7ZcGSdDE5ovO-I-18">
          <mxGeometry y="70" width="190" height="8" as="geometry" />
        </mxCell>
        <mxCell id="ISGLbj7ZcGSdDE5ovO-I-21" value="+ agregarSistemaOperativo()&lt;br&gt;+ cambiarSistemaOperativo()&lt;br&gt;+ eliminarSistemaOperativo()&lt;br&gt;+ obtenerSistemaOperativo()" style="text;strokeColor=none;fillColor=none;align=left;verticalAlign=top;spacingLeft=4;spacingRight=4;overflow=hidden;rotatable=0;points=[[0,0.5],[1,0.5]];portConstraint=eastwest;whiteSpace=wrap;html=1;" vertex="1" parent="ISGLbj7ZcGSdDE5ovO-I-18">
          <mxGeometry y="78" width="190" height="82" as="geometry" />
        </mxCell>
        <mxCell id="ISGLbj7ZcGSdDE5ovO-I-23" value="*" style="text;html=1;align=center;verticalAlign=middle;resizable=0;points=[];autosize=1;strokeColor=none;fillColor=none;fontSize=18;" vertex="1" parent="1">
          <mxGeometry x="142" y="801" width="30" height="40" as="geometry" />
        </mxCell>
        <mxCell id="ISGLbj7ZcGSdDE5ovO-I-24" value="1" style="text;html=1;align=center;verticalAlign=middle;resizable=0;points=[];autosize=1;strokeColor=none;fillColor=none;" vertex="1" parent="1">
          <mxGeometry x="142" y="851" width="30" height="30" as="geometry" />
        </mxCell>
      </root>
    </mxGraphModel>
  </diagram>
  <diagram id="aSfOG3sT2o98ypCVmN_m" name="ejercicio-7">
    <mxGraphModel grid="1" page="1" gridSize="10" guides="1" tooltips="1" connect="1" arrows="1" fold="1" pageScale="1" pageWidth="827" pageHeight="1169" math="0" shadow="0">
      <root>
        <mxCell id="0" />
        <mxCell id="1" parent="0" />
        <mxCell id="C0A4fxAdx_afC2rZRVJL-1" value="Estudiante" style="swimlane;fontStyle=1;align=center;verticalAlign=top;childLayout=stackLayout;horizontal=1;startSize=26;horizontalStack=0;resizeParent=1;resizeParentMax=0;resizeLast=0;collapsible=1;marginBottom=0;whiteSpace=wrap;html=1;" vertex="1" parent="1">
          <mxGeometry x="150" y="150" width="160" height="240" as="geometry" />
        </mxCell>
        <mxCell id="C0A4fxAdx_afC2rZRVJL-2" value="&lt;div&gt;- numeroEstudiante&amp;nbsp;&lt;/div&gt;&lt;div&gt;- creditosCompletados &lt;/div&gt;- calificacionPromedio &lt;br&gt;- departamento &lt;br&gt;- mayor &lt;br&gt;- menor " style="text;strokeColor=none;fillColor=none;align=left;verticalAlign=top;spacingLeft=4;spacingRight=4;overflow=hidden;rotatable=0;points=[[0,0.5],[1,0.5]];portConstraint=eastwest;whiteSpace=wrap;html=1;" vertex="1" parent="C0A4fxAdx_afC2rZRVJL-1">
          <mxGeometry y="26" width="160" height="104" as="geometry" />
        </mxCell>
        <mxCell id="C0A4fxAdx_afC2rZRVJL-3" value="" style="line;strokeWidth=1;fillColor=none;align=left;verticalAlign=middle;spacingTop=-1;spacingLeft=3;spacingRight=3;rotatable=0;labelPosition=right;points=[];portConstraint=eastwest;strokeColor=inherit;" vertex="1" parent="C0A4fxAdx_afC2rZRVJL-1">
          <mxGeometry y="130" width="160" height="8" as="geometry" />
        </mxCell>
        <mxCell id="C0A4fxAdx_afC2rZRVJL-4" value="+ cambiarEstudiante()&lt;br&gt;+ buscarEstudiante()&lt;br&gt;+ graduarEstudiante()&lt;br&gt;+ inicializar()&lt;br&gt;+ estudianteCompleto()&lt;br&gt;+ verEstudiante()" style="text;strokeColor=none;fillColor=none;align=left;verticalAlign=top;spacingLeft=4;spacingRight=4;overflow=hidden;rotatable=0;points=[[0,0.5],[1,0.5]];portConstraint=eastwest;whiteSpace=wrap;html=1;" vertex="1" parent="C0A4fxAdx_afC2rZRVJL-1">
          <mxGeometry y="138" width="160" height="102" as="geometry" />
        </mxCell>
        <mxCell id="C0A4fxAdx_afC2rZRVJL-5" value="Curso" style="swimlane;fontStyle=1;align=center;verticalAlign=top;childLayout=stackLayout;horizontal=1;startSize=26;horizontalStack=0;resizeParent=1;resizeParentMax=0;resizeLast=0;collapsible=1;marginBottom=0;whiteSpace=wrap;html=1;" vertex="1" parent="1">
          <mxGeometry x="510" y="180" width="160" height="170" as="geometry" />
        </mxCell>
        <mxCell id="C0A4fxAdx_afC2rZRVJL-6" value="- numeroCurso &lt;br&gt;- descripcionCurso &lt;br&gt;- numeroDeCreditos &lt;br&gt;- numeroDepartamento " style="text;strokeColor=none;fillColor=none;align=left;verticalAlign=top;spacingLeft=4;spacingRight=4;overflow=hidden;rotatable=0;points=[[0,0.5],[1,0.5]];portConstraint=eastwest;whiteSpace=wrap;html=1;" vertex="1" parent="C0A4fxAdx_afC2rZRVJL-5">
          <mxGeometry y="26" width="160" height="74" as="geometry" />
        </mxCell>
        <mxCell id="C0A4fxAdx_afC2rZRVJL-7" value="" style="line;strokeWidth=1;fillColor=none;align=left;verticalAlign=middle;spacingTop=-1;spacingLeft=3;spacingRight=3;rotatable=0;labelPosition=right;points=[];portConstraint=eastwest;strokeColor=inherit;" vertex="1" parent="C0A4fxAdx_afC2rZRVJL-5">
          <mxGeometry y="100" width="160" height="8" as="geometry" />
        </mxCell>
        <mxCell id="C0A4fxAdx_afC2rZRVJL-8" value="+ agregarCurso()&lt;br&gt;+ cambiarCurso()&lt;br&gt;+ buscarCurso()" style="text;strokeColor=none;fillColor=none;align=left;verticalAlign=top;spacingLeft=4;spacingRight=4;overflow=hidden;rotatable=0;points=[[0,0.5],[1,0.5]];portConstraint=eastwest;whiteSpace=wrap;html=1;" vertex="1" parent="C0A4fxAdx_afC2rZRVJL-5">
          <mxGeometry y="108" width="160" height="62" as="geometry" />
        </mxCell>
        <mxCell id="C0A4fxAdx_afC2rZRVJL-9" value="Sección" style="swimlane;fontStyle=1;align=center;verticalAlign=top;childLayout=stackLayout;horizontal=1;startSize=26;horizontalStack=0;resizeParent=1;resizeParentMax=0;resizeLast=0;collapsible=1;marginBottom=0;whiteSpace=wrap;html=1;" vertex="1" parent="1">
          <mxGeometry x="334" y="373" width="160" height="230" as="geometry" />
        </mxCell>
        <mxCell id="C0A4fxAdx_afC2rZRVJL-10" value="- numeroEstudiante &lt;br&gt;- numeroCurso &lt;br&gt;- anio&lt;br&gt;- semestre &lt;br&gt;- calificacion " style="text;strokeColor=none;fillColor=none;align=left;verticalAlign=top;spacingLeft=4;spacingRight=4;overflow=hidden;rotatable=0;points=[[0,0.5],[1,0.5]];portConstraint=eastwest;whiteSpace=wrap;html=1;" vertex="1" parent="C0A4fxAdx_afC2rZRVJL-9">
          <mxGeometry y="26" width="160" height="94" as="geometry" />
        </mxCell>
        <mxCell id="C0A4fxAdx_afC2rZRVJL-11" value="" style="line;strokeWidth=1;fillColor=none;align=left;verticalAlign=middle;spacingTop=-1;spacingLeft=3;spacingRight=3;rotatable=0;labelPosition=right;points=[];portConstraint=eastwest;strokeColor=inherit;" vertex="1" parent="C0A4fxAdx_afC2rZRVJL-9">
          <mxGeometry y="120" width="160" height="8" as="geometry" />
        </mxCell>
        <mxCell id="C0A4fxAdx_afC2rZRVJL-12" value="+ agregarSeccion()&lt;br&gt;+ cambiarCalificacion()&lt;br&gt;+ inscribirEstudiante()&lt;br&gt;+ registrarCalificacion()&lt;br&gt;+ retirarEstudiante()" style="text;strokeColor=none;fillColor=none;align=left;verticalAlign=top;spacingLeft=4;spacingRight=4;overflow=hidden;rotatable=0;points=[[0,0.5],[1,0.5]];portConstraint=eastwest;whiteSpace=wrap;html=1;" vertex="1" parent="C0A4fxAdx_afC2rZRVJL-9">
          <mxGeometry y="128" width="160" height="102" as="geometry" />
        </mxCell>
        <mxCell id="LSFKiB0zoHvCtORdYanT-2" value="" style="edgeStyle=orthogonalEdgeStyle;rounded=0;orthogonalLoop=1;jettySize=auto;html=1;endArrow=none;endFill=0;dashed=1;" edge="1" parent="1">
          <mxGeometry relative="1" as="geometry">
            <mxPoint x="412.89" y="237" as="sourcePoint" />
            <mxPoint x="413.09" y="375" as="targetPoint" />
            <Array as="points">
              <mxPoint x="412.89" y="297" />
              <mxPoint x="412.89" y="297" />
            </Array>
          </mxGeometry>
        </mxCell>
        <mxCell id="LSFKiB0zoHvCtORdYanT-3" value="" style="endArrow=none;endFill=0;endSize=12;html=1;rounded=0;" edge="1" parent="1">
          <mxGeometry width="160" relative="1" as="geometry">
            <mxPoint x="310" y="236" as="sourcePoint" />
            <mxPoint x="510" y="236" as="targetPoint" />
          </mxGeometry>
        </mxCell>
        <mxCell id="LSFKiB0zoHvCtORdYanT-4" value="1..*" style="text;html=1;align=center;verticalAlign=middle;resizable=0;points=[];autosize=1;strokeColor=none;fillColor=none;fontSize=18;" vertex="1" parent="1">
          <mxGeometry x="306" y="200" width="50" height="40" as="geometry" />
        </mxCell>
        <mxCell id="LSFKiB0zoHvCtORdYanT-5" value="toma" style="text;html=1;align=center;verticalAlign=middle;resizable=0;points=[];autosize=1;strokeColor=none;fillColor=none;fontSize=16;" vertex="1" parent="1">
          <mxGeometry x="334" y="233" width="60" height="30" as="geometry" />
        </mxCell>
        <mxCell id="LSFKiB0zoHvCtORdYanT-6" value="0..*" style="text;html=1;align=center;verticalAlign=middle;resizable=0;points=[];autosize=1;strokeColor=none;fillColor=none;fontSize=18;" vertex="1" parent="1">
          <mxGeometry x="460" y="200" width="50" height="40" as="geometry" />
        </mxCell>
        <mxCell id="LSFKiB0zoHvCtORdYanT-7" value="tiene" style="text;html=1;align=center;verticalAlign=middle;resizable=0;points=[];autosize=1;strokeColor=none;fillColor=none;fontSize=16;" vertex="1" parent="1">
          <mxGeometry x="420" y="233" width="60" height="30" as="geometry" />
        </mxCell>
      </root>
    </mxGraphModel>
  </diagram>
  <diagram id="-DMAsFlHRSUdM3RwbOIl" name="ejercicio-8">
    <mxGraphModel grid="1" page="1" gridSize="10" guides="1" tooltips="1" connect="1" arrows="1" fold="1" pageScale="1" pageWidth="827" pageHeight="1169" math="0" shadow="0">
      <root>
        <mxCell id="0" />
        <mxCell id="1" parent="0" />
        <mxCell id="2MLlXrvmMr2xDps52qZC-13" value="" style="endArrow=diamondThin;endFill=1;endSize=24;html=1;rounded=0;exitX=0.76;exitY=0.002;exitDx=0;exitDy=0;exitPerimeter=0;" edge="1" parent="1">
          <mxGeometry width="160" relative="1" as="geometry">
            <mxPoint x="464" y="541.34" as="sourcePoint" />
            <mxPoint x="464" y="476" as="targetPoint" />
          </mxGeometry>
        </mxCell>
        <mxCell id="2MLlXrvmMr2xDps52qZC-12" value="" style="endArrow=diamondThin;endFill=1;endSize=24;html=1;rounded=0;exitX=0.76;exitY=0.002;exitDx=0;exitDy=0;exitPerimeter=0;" edge="1" parent="1">
          <mxGeometry width="160" relative="1" as="geometry">
            <mxPoint x="385.6" y="541.34" as="sourcePoint" />
            <mxPoint x="385.6" y="476" as="targetPoint" />
          </mxGeometry>
        </mxCell>
        <mxCell id="pSL1OYcPXd7PRC4vzvk8-1" value="Departamento" style="swimlane;fontStyle=1;align=center;verticalAlign=top;childLayout=stackLayout;horizontal=1;startSize=26;horizontalStack=0;resizeParent=1;resizeParentMax=0;resizeLast=0;collapsible=1;marginBottom=0;whiteSpace=wrap;html=1;" vertex="1" parent="1">
          <mxGeometry x="54" y="330" width="160" height="120" as="geometry" />
        </mxCell>
        <mxCell id="pSL1OYcPXd7PRC4vzvk8-2" value="&lt;div&gt;- nombreDepartamento&lt;/div&gt;&lt;div&gt;- sillaDepartamento&lt;/div&gt;" style="text;strokeColor=none;fillColor=none;align=left;verticalAlign=top;spacingLeft=4;spacingRight=4;overflow=hidden;rotatable=0;points=[[0,0.5],[1,0.5]];portConstraint=eastwest;whiteSpace=wrap;html=1;" vertex="1" parent="pSL1OYcPXd7PRC4vzvk8-1">
          <mxGeometry y="26" width="160" height="44" as="geometry" />
        </mxCell>
        <mxCell id="pSL1OYcPXd7PRC4vzvk8-3" value="" style="line;strokeWidth=1;fillColor=none;align=left;verticalAlign=middle;spacingTop=-1;spacingLeft=3;spacingRight=3;rotatable=0;labelPosition=right;points=[];portConstraint=eastwest;strokeColor=inherit;" vertex="1" parent="pSL1OYcPXd7PRC4vzvk8-1">
          <mxGeometry y="70" width="160" height="8" as="geometry" />
        </mxCell>
        <mxCell id="pSL1OYcPXd7PRC4vzvk8-4" value="&lt;div&gt;+ agregarDepartamento()&lt;/div&gt;&lt;div&gt;+ verDepartamento()&lt;/div&gt;" style="text;strokeColor=none;fillColor=none;align=left;verticalAlign=top;spacingLeft=4;spacingRight=4;overflow=hidden;rotatable=0;points=[[0,0.5],[1,0.5]];portConstraint=eastwest;whiteSpace=wrap;html=1;" vertex="1" parent="pSL1OYcPXd7PRC4vzvk8-1">
          <mxGeometry y="78" width="160" height="42" as="geometry" />
        </mxCell>
        <mxCell id="Nvdn0baTbI2ia6LRGXmA-7" value="" style="edgeStyle=orthogonalEdgeStyle;rounded=0;orthogonalLoop=1;jettySize=auto;html=1;endArrow=none;endFill=0;" edge="1" parent="1">
          <mxGeometry relative="1" as="geometry">
            <mxPoint x="515" y="364.9985714285714" as="sourcePoint" />
            <mxPoint x="614" y="364.9985714285714" as="targetPoint" />
            <Array as="points">
              <mxPoint x="594" y="364.97" />
              <mxPoint x="594" y="364.97" />
            </Array>
          </mxGeometry>
        </mxCell>
        <mxCell id="pSL1OYcPXd7PRC4vzvk8-6" value="Curso" style="swimlane;fontStyle=1;align=center;verticalAlign=top;childLayout=stackLayout;horizontal=1;startSize=26;horizontalStack=0;resizeParent=1;resizeParentMax=0;resizeLast=0;collapsible=1;marginBottom=0;whiteSpace=wrap;html=1;" vertex="1" parent="1">
          <mxGeometry x="355" y="305" width="160" height="170" as="geometry" />
        </mxCell>
        <mxCell id="pSL1OYcPXd7PRC4vzvk8-7" value="&lt;div&gt;- numeroCurso&lt;/div&gt;&lt;div&gt;- descripcionCurso&lt;/div&gt;&lt;div&gt;- numeroCreditos&lt;br&gt;&lt;/div&gt;- numeroDepartamento" style="text;strokeColor=none;fillColor=none;align=left;verticalAlign=top;spacingLeft=4;spacingRight=4;overflow=hidden;rotatable=0;points=[[0,0.5],[1,0.5]];portConstraint=eastwest;whiteSpace=wrap;html=1;" vertex="1" parent="pSL1OYcPXd7PRC4vzvk8-6">
          <mxGeometry y="26" width="160" height="74" as="geometry" />
        </mxCell>
        <mxCell id="pSL1OYcPXd7PRC4vzvk8-8" value="" style="line;strokeWidth=1;fillColor=none;align=left;verticalAlign=middle;spacingTop=-1;spacingLeft=3;spacingRight=3;rotatable=0;labelPosition=right;points=[];portConstraint=eastwest;strokeColor=inherit;" vertex="1" parent="pSL1OYcPXd7PRC4vzvk8-6">
          <mxGeometry y="100" width="160" height="8" as="geometry" />
        </mxCell>
        <mxCell id="pSL1OYcPXd7PRC4vzvk8-9" value="+agregarCurso()&lt;br&gt;+cambiarCurso()&lt;br&gt;+buscarCurso()" style="text;strokeColor=none;fillColor=none;align=left;verticalAlign=top;spacingLeft=4;spacingRight=4;overflow=hidden;rotatable=0;points=[[0,0.5],[1,0.5]];portConstraint=eastwest;whiteSpace=wrap;html=1;" vertex="1" parent="pSL1OYcPXd7PRC4vzvk8-6">
          <mxGeometry y="108" width="160" height="62" as="geometry" />
        </mxCell>
        <mxCell id="Nvdn0baTbI2ia6LRGXmA-1" value="" style="endArrow=none;html=1;endSize=12;startArrow=diamondThin;startSize=14;startFill=0;edgeStyle=orthogonalEdgeStyle;align=left;verticalAlign=bottom;rounded=0;endFill=0;entryX=-0.01;entryY=0.806;entryDx=0;entryDy=0;entryPerimeter=0;" edge="1" parent="1">
          <mxGeometry x="-0.7368" y="-8" relative="1" as="geometry">
            <mxPoint x="215" y="389" as="sourcePoint" />
            <mxPoint x="353.4" y="389.644" as="targetPoint" />
            <mxPoint as="offset" />
          </mxGeometry>
        </mxCell>
        <mxCell id="Nvdn0baTbI2ia6LRGXmA-2" value="&lt;div&gt;tiene un&lt;/div&gt;&lt;div&gt;es para un&lt;br&gt;&lt;/div&gt;" style="text;html=1;align=center;verticalAlign=middle;resizable=0;points=[];autosize=1;strokeColor=none;fillColor=none;" vertex="1" parent="1">
          <mxGeometry x="240" y="367" width="80" height="40" as="geometry" />
        </mxCell>
        <mxCell id="Nvdn0baTbI2ia6LRGXmA-3" value="LibroTexto" style="swimlane;fontStyle=1;align=center;verticalAlign=top;childLayout=stackLayout;horizontal=1;startSize=26;horizontalStack=0;resizeParent=1;resizeParentMax=0;resizeLast=0;collapsible=1;marginBottom=0;whiteSpace=wrap;html=1;" vertex="1" parent="1">
          <mxGeometry x="614" y="290" width="160" height="210" as="geometry" />
        </mxCell>
        <mxCell id="Nvdn0baTbI2ia6LRGXmA-4" value="&lt;div&gt;- ISBN&lt;/div&gt;&lt;div&gt;- autor&lt;/div&gt;&lt;div&gt;- titulo&lt;/div&gt;&lt;div&gt;- edicion&lt;/div&gt;&lt;div&gt;- editorial&lt;/div&gt;&lt;div&gt;- requerido&lt;br&gt;&lt;/div&gt;" style="text;strokeColor=none;fillColor=none;align=left;verticalAlign=top;spacingLeft=4;spacingRight=4;overflow=hidden;rotatable=0;points=[[0,0.5],[1,0.5]];portConstraint=eastwest;whiteSpace=wrap;html=1;" vertex="1" parent="Nvdn0baTbI2ia6LRGXmA-3">
          <mxGeometry y="26" width="160" height="94" as="geometry" />
        </mxCell>
        <mxCell id="Nvdn0baTbI2ia6LRGXmA-5" value="" style="line;strokeWidth=1;fillColor=none;align=left;verticalAlign=middle;spacingTop=-1;spacingLeft=3;spacingRight=3;rotatable=0;labelPosition=right;points=[];portConstraint=eastwest;strokeColor=inherit;" vertex="1" parent="Nvdn0baTbI2ia6LRGXmA-3">
          <mxGeometry y="120" width="160" height="8" as="geometry" />
        </mxCell>
        <mxCell id="Nvdn0baTbI2ia6LRGXmA-6" value="+ agregarTexto()&lt;br&gt;+ cambiarTexto()&lt;br&gt;+ buscarTexto()&lt;br&gt;+ quitarTexto()" style="text;strokeColor=none;fillColor=none;align=left;verticalAlign=top;spacingLeft=4;spacingRight=4;overflow=hidden;rotatable=0;points=[[0,0.5],[1,0.5]];portConstraint=eastwest;whiteSpace=wrap;html=1;" vertex="1" parent="Nvdn0baTbI2ia6LRGXmA-3">
          <mxGeometry y="128" width="160" height="82" as="geometry" />
        </mxCell>
        <mxCell id="Nvdn0baTbI2ia6LRGXmA-9" value="1..*" style="text;html=1;align=center;verticalAlign=middle;resizable=0;points=[];autosize=1;strokeColor=none;fillColor=none;fontSize=15;" vertex="1" parent="1">
          <mxGeometry x="573" y="335" width="50" height="30" as="geometry" />
        </mxCell>
        <mxCell id="Nvdn0baTbI2ia6LRGXmA-11" value="1" style="text;html=1;align=center;verticalAlign=middle;resizable=0;points=[];autosize=1;strokeColor=none;fillColor=none;fontSize=15;" vertex="1" parent="1">
          <mxGeometry x="510" y="335" width="30" height="30" as="geometry" />
        </mxCell>
        <mxCell id="2MLlXrvmMr2xDps52qZC-2" value="Asignacion" style="swimlane;fontStyle=1;align=center;verticalAlign=top;childLayout=stackLayout;horizontal=1;startSize=26;horizontalStack=0;resizeParent=1;resizeParentMax=0;resizeLast=0;collapsible=1;marginBottom=0;whiteSpace=wrap;html=1;" vertex="1" parent="1">
          <mxGeometry x="264" y="540" width="160" height="170" as="geometry" />
        </mxCell>
        <mxCell id="2MLlXrvmMr2xDps52qZC-3" value="&lt;div&gt;- numeroAsignacion&lt;/div&gt;&lt;div&gt;- descripcionAsignacion&lt;/div&gt;&lt;div&gt;- puntosAsignacion&lt;/div&gt;- fechaEntregaAsignacion" style="text;strokeColor=none;fillColor=none;align=left;verticalAlign=top;spacingLeft=4;spacingRight=4;overflow=hidden;rotatable=0;points=[[0,0.5],[1,0.5]];portConstraint=eastwest;whiteSpace=wrap;html=1;" vertex="1" parent="2MLlXrvmMr2xDps52qZC-2">
          <mxGeometry y="26" width="160" height="74" as="geometry" />
        </mxCell>
        <mxCell id="2MLlXrvmMr2xDps52qZC-4" value="" style="line;strokeWidth=1;fillColor=none;align=left;verticalAlign=middle;spacingTop=-1;spacingLeft=3;spacingRight=3;rotatable=0;labelPosition=right;points=[];portConstraint=eastwest;strokeColor=inherit;" vertex="1" parent="2MLlXrvmMr2xDps52qZC-2">
          <mxGeometry y="100" width="160" height="8" as="geometry" />
        </mxCell>
        <mxCell id="2MLlXrvmMr2xDps52qZC-5" value="+ agregarAsignacion()&lt;br&gt;+ cambiarAsignacion()&lt;br&gt;+ verAsignacion()" style="text;strokeColor=none;fillColor=none;align=left;verticalAlign=top;spacingLeft=4;spacingRight=4;overflow=hidden;rotatable=0;points=[[0,0.5],[1,0.5]];portConstraint=eastwest;whiteSpace=wrap;html=1;" vertex="1" parent="2MLlXrvmMr2xDps52qZC-2">
          <mxGeometry y="108" width="160" height="62" as="geometry" />
        </mxCell>
        <mxCell id="2MLlXrvmMr2xDps52qZC-8" value="Examen" style="swimlane;fontStyle=1;align=center;verticalAlign=top;childLayout=stackLayout;horizontal=1;startSize=26;horizontalStack=0;resizeParent=1;resizeParentMax=0;resizeLast=0;collapsible=1;marginBottom=0;whiteSpace=wrap;html=1;" vertex="1" parent="1">
          <mxGeometry x="444" y="540" width="160" height="170" as="geometry" />
        </mxCell>
        <mxCell id="2MLlXrvmMr2xDps52qZC-9" value="&lt;div&gt;- numeroExamen&lt;/div&gt;&lt;div&gt;- nombreExamen&lt;br&gt;&lt;/div&gt;&lt;div&gt;- puntosExamen&lt;/div&gt;- versionExamen" style="text;strokeColor=none;fillColor=none;align=left;verticalAlign=top;spacingLeft=4;spacingRight=4;overflow=hidden;rotatable=0;points=[[0,0.5],[1,0.5]];portConstraint=eastwest;whiteSpace=wrap;html=1;" vertex="1" parent="2MLlXrvmMr2xDps52qZC-8">
          <mxGeometry y="26" width="160" height="74" as="geometry" />
        </mxCell>
        <mxCell id="2MLlXrvmMr2xDps52qZC-10" value="" style="line;strokeWidth=1;fillColor=none;align=left;verticalAlign=middle;spacingTop=-1;spacingLeft=3;spacingRight=3;rotatable=0;labelPosition=right;points=[];portConstraint=eastwest;strokeColor=inherit;" vertex="1" parent="2MLlXrvmMr2xDps52qZC-8">
          <mxGeometry y="100" width="160" height="8" as="geometry" />
        </mxCell>
        <mxCell id="2MLlXrvmMr2xDps52qZC-11" value="+ agregarExamen()&lt;br&gt;+ cambiarExamen()&lt;br&gt;+ buscarExamen()" style="text;strokeColor=none;fillColor=none;align=left;verticalAlign=top;spacingLeft=4;spacingRight=4;overflow=hidden;rotatable=0;points=[[0,0.5],[1,0.5]];portConstraint=eastwest;whiteSpace=wrap;html=1;" vertex="1" parent="2MLlXrvmMr2xDps52qZC-8">
          <mxGeometry y="108" width="160" height="62" as="geometry" />
        </mxCell>
      </root>
    </mxGraphModel>
  </diagram>
</mxfile>
